<svg width="20" height="18" viewBox="0 0 20 18" fill="none" xmlns="http://www.w3.org/2000/svg">
<path d="M16.6492 0.25H3.35083C1.50292 0.25 0 1.75292 0 3.60083V9.76833V14.4167V16.9167C0 17.3767 0.373333 17.75 0.833333 17.75C1.29333 17.75 1.66667 17.3767 1.66667 16.9167V15.25H18.3333V16.9167C18.3333 17.3767 18.7067 17.75 19.1667 17.75C19.6267 17.75 20 17.3767 20 16.9167V14.4167V9.76833V3.60083C20 1.75292 18.4971 0.25 16.6492 0.25ZM18.3333 10.25H6.25C5.79 10.25 5.41667 10.6233 5.41667 11.0833C5.41667 11.5433 5.79 11.9167 6.25 11.9167H18.3333V13.5833H1.66667V11.9167H2.91667C3.37667 11.9167 3.75 11.5433 3.75 11.0833C3.75 10.6233 3.37667 10.25 2.91667 10.25H1.66667V9.76833C1.66667 9.35417 1.66667 8.58333 3.685 8.58333H3.75H8.33333H11.6667H16.25H16.315C18.3333 8.58333 18.3333 9.35417 18.3333 9.76833V10.25ZM4.58333 6.91667V6.44792C4.58333 6.24708 4.74708 6.08333 4.94792 6.08333H7.13542C7.33625 6.08333 7.5 6.24708 7.5 6.44792V6.91667H4.58333ZM12.5 6.91667V6.44792C12.5 6.24708 12.6637 6.08333 12.8646 6.08333H15.0521C15.2529 6.08333 15.4167 6.24708 15.4167 6.44792V6.91667H12.5ZM18.3333 7.25167C17.9904 7.11292 17.5763 7.01208 17.0833 6.96V6.44792C17.0833 5.32792 16.1721 4.41667 15.0521 4.41667H12.8646C11.7446 4.41667 10.8333 5.32792 10.8333 6.44792V6.91667H9.16667V6.44792C9.16667 5.32792 8.25542 4.41667 7.13542 4.41667H4.94792C3.82792 4.41667 2.91667 5.32792 2.91667 6.44792V6.96C2.42375 7.01208 2.00958 7.11292 1.66667 7.25167V3.60083C1.66667 2.67208 2.42208 1.91667 3.35083 1.91667H16.6496C17.5779 1.91667 18.3333 2.67208 18.3333 3.60083V7.25167Z" fill="black"/>
</svg>
