<svg width="20" height="20" viewBox="0 0 20 20" fill="none" xmlns="http://www.w3.org/2000/svg">
<g clip-path="url(#clip0_108_1752)">
<path d="M2.6877 9.12769H0V10.3777H2.6877V9.12769Z" fill="black"/>
<path d="M17.8516 0.256104H14.7827H5.21727H1.99219H0V8.61517H2.6877C3.52875 6.99868 4.55141 3.01489 4.99449 1.1936H15.0055C15.4486 3.01489 16.4713 6.99868 17.3123 8.61517H20V0.256104H17.8516Z" fill="black"/>
<path d="M14.9396 16.8185H5.06043L2.52957 10.895H0V19.4061C0 19.4061 0.948516 20.166 2.6877 19.4061C4.42688 18.6462 4.42688 20.014 6.16605 19.4061L5.46113 17.756H14.5389L13.8339 19.4061C15.5731 20.014 15.5731 18.6462 17.3123 19.4061C19.0515 20.166 20 19.4061 20 19.4061V10.895H17.4704L14.9396 16.8185Z" fill="black"/>
<path d="M20.0002 9.12769H17.3125V10.3777H20.0002V9.12769Z" fill="black"/>
<path d="M7.08612 11.8522L7.3623 12.1284L13.8256 5.66517L13.5494 5.38898L7.08612 11.8522Z" fill="black"/>
<path d="M14.1282 9.86725L13.8521 9.59106L9.37746 14.0657L9.65364 14.3418L14.1282 9.86725Z" fill="black"/>
</g>
<defs>
<clipPath id="clip0_108_1752">
<rect width="20" height="20" fill="white"/>
</clipPath>
</defs>
</svg>
