<svg width="20" height="20" viewBox="0 0 20 20" fill="none" xmlns="http://www.w3.org/2000/svg">
<path d="M3.9998 0C3.34199 0 2.7998 0.542188 2.7998 1.2V7.475C2.77637 7.55313 2.77637 7.63438 2.7998 7.7125V17.6C2.7998 18.2578 3.34199 18.8 3.9998 18.8V19.2C3.9998 19.6375 4.3623 20 4.7998 20H5.9998C6.4373 20 6.79981 19.6375 6.79981 19.2V18.8H13.1998V19.2C13.1998 19.6375 13.5623 20 13.9998 20H15.1998C15.6373 20 15.9998 19.6375 15.9998 19.2V18.8C16.6576 18.8 17.1998 18.2578 17.1998 17.6V7.675C17.2107 7.62188 17.2107 7.56563 17.1998 7.5125V1.2C17.1998 0.542188 16.6576 0 15.9998 0H3.9998ZM3.9998 0.8H15.9998C16.2248 0.8 16.3998 0.975 16.3998 1.2V7.2H3.5998V1.2C3.5998 0.975 3.7748 0.8 3.9998 0.8ZM5.5623 2.3875C5.54512 2.39063 5.52793 2.39531 5.51231 2.4C5.32637 2.44219 5.19512 2.60938 5.19981 2.8V5.6C5.19824 5.74375 5.27324 5.87813 5.39824 5.95156C5.52324 6.02344 5.67637 6.02344 5.80137 5.95156C5.92637 5.87813 6.00137 5.74375 5.9998 5.6V2.8C6.00449 2.68438 5.95762 2.57344 5.8748 2.49531C5.79043 2.41563 5.67637 2.37656 5.5623 2.3875ZM3.5998 8H16.3998V17.6C16.3998 17.825 16.2248 18 15.9998 18H3.9998C3.7748 18 3.5998 17.825 3.5998 17.6V8ZM5.5623 9.1875C5.54512 9.19063 5.52793 9.19531 5.51231 9.2C5.32637 9.24219 5.19512 9.40938 5.19981 9.6V12.4C5.19824 12.5437 5.27324 12.6781 5.39824 12.7516C5.52324 12.8234 5.67637 12.8234 5.80137 12.7516C5.92637 12.6781 6.00137 12.5437 5.9998 12.4V9.6C6.00449 9.48438 5.95762 9.37344 5.8748 9.29531C5.79043 9.21563 5.67637 9.17656 5.5623 9.1875ZM4.7998 18.8H5.9998V19.2H4.7998V18.8ZM13.9998 18.8H15.1998V19.2H13.9998V18.8Z" fill="black"/>
</svg>
