<svg width="20" height="20" viewBox="0 0 20 20" fill="none" xmlns="http://www.w3.org/2000/svg">
<path d="M3.43066 13.3733C2.97832 13.3733 2.61035 13.7413 2.61035 14.1937C2.61035 14.6485 2.97832 15.0168 3.43066 15.0168C3.8827 15.0168 4.2334 14.7733 4.3959 14.2485C4.44797 14.0864 4.51762 13.756 4.56402 13.437C4.26824 13.3326 3.98121 13.2052 3.70891 13.0631C3.6393 13.3009 3.51187 13.3733 3.43066 13.3733Z" fill="black"/>
<path d="M16.5089 13.3733C16.4277 13.3733 16.3 13.3009 16.2306 13.0631C15.9581 13.2052 15.671 13.3326 15.3755 13.437C15.4247 13.756 15.4944 14.0864 15.5437 14.2485C15.7058 14.7733 16.0565 15.0168 16.5089 15.0168C16.9637 15.0168 17.332 14.6485 17.332 14.1937C17.3321 13.7413 16.9638 13.3733 16.5089 13.3733Z" fill="black"/>
<path d="M18.9869 4.98315H1.01309C0.453438 4.98315 0 5.43659 0 5.99624V6.57765C0.0003125 6.82108 0.0705078 7.06565 0.234102 7.26405C0.308828 7.35433 0.405937 7.4305 0.515742 7.48683C0.688398 10.855 3.47316 13.5321 6.88406 13.5325H13.1159C16.5266 13.5321 19.311 10.8555 19.484 7.48796C19.6547 7.40077 19.7886 7.26265 19.8715 7.10753C19.9601 6.94276 19.9997 6.76108 20 6.57765V5.99624C20 5.43659 19.5465 4.98315 18.9869 4.98315ZM17.0103 11.05C16.0123 12.0473 14.6382 12.6626 13.1159 12.6629H6.88406C5.36172 12.6626 3.98777 12.0472 2.98969 11.05C2.02445 10.0842 1.42238 8.76456 1.38418 7.30058H18.6158C18.5776 8.76456 17.9755 10.0842 17.0103 11.05ZM19.1304 6.57765C19.1307 6.65319 19.1069 6.69792 19.097 6.70839L19.088 6.71632L19.058 6.72085H19.0283H18.6232H1.3768H0.942031L0.912031 6.71632L0.893633 6.69425C0.882578 6.6744 0.869297 6.63366 0.86957 6.57765V5.99624C0.869883 5.91671 0.933555 5.85304 1.01309 5.85272H18.9869C19.0664 5.85304 19.1301 5.91671 19.1304 5.99624V6.57765Z" fill="black"/>
<path d="M2.87568 8.46787C3.27564 9.66974 4.15626 10.6514 5.28989 11.1856C5.43454 11.2538 5.6072 11.1918 5.67544 11.0469C5.74364 10.9022 5.68169 10.7296 5.53677 10.6613V10.6611C4.54634 10.1949 3.77443 9.33408 3.42595 8.28509C3.37528 8.1331 3.21111 8.05099 3.05939 8.10138C2.90739 8.15201 2.82528 8.31619 2.87568 8.46787Z" fill="black"/>
</svg>
