<svg width="31" height="33" viewBox="0 0 31 33" fill="none" xmlns="http://www.w3.org/2000/svg">
<path d="M9.26983 2.92188C9.26983 2.31782 8.78014 1.82812 8.17608 1.82812C7.57202 1.82812 7.08233 2.31782 7.08233 2.92188V5.22496C4.98331 5.39303 3.60533 5.80554 2.59295 6.81791C1.58058 7.83029 1.16807 9.20827 1 11.3073H29.9354C29.7674 9.20827 29.3549 7.83029 28.3425 6.81791C27.3301 5.80554 25.9521 5.39303 23.8532 5.22496V2.92188C23.8532 2.31782 23.3635 1.82812 22.7594 1.82812C22.1554 1.82812 21.6657 2.31782 21.6657 2.92188V5.12819C20.6954 5.10937 19.608 5.10937 18.3844 5.10937H12.5511C11.3275 5.10937 10.24 5.10937 9.26983 5.12819V2.92188Z" fill="#606C38"/>
<path fill-rule="evenodd" clip-rule="evenodd" d="M1 16.5884C1 15.3648 1 14.2774 1.01881 13.3071H30.1479C30.1667 14.2774 30.1667 15.3648 30.1667 16.5884V19.505C30.1667 25.0047 30.1667 27.7547 28.4581 29.4631C26.7496 31.1717 23.9997 31.1717 18.5 31.1717H12.6667C7.16694 31.1717 4.41709 31.1717 2.70854 29.4631C1 27.7547 1 25.0047 1 19.505V16.5884ZM22.875 19.505C23.6804 19.505 24.3333 18.8521 24.3333 18.0467C24.3333 17.2413 23.6804 16.5884 22.875 16.5884C22.0696 16.5884 21.4167 17.2413 21.4167 18.0467C21.4167 18.8521 22.0696 19.505 22.875 19.505ZM22.875 25.3384C23.6804 25.3384 24.3333 24.6855 24.3333 23.88C24.3333 23.0746 23.6804 22.4217 22.875 22.4217C22.0696 22.4217 21.4167 23.0746 21.4167 23.88C21.4167 24.6855 22.0696 25.3384 22.875 25.3384ZM17.0417 18.0467C17.0417 18.8521 16.3888 19.505 15.5833 19.505C14.7779 19.505 14.125 18.8521 14.125 18.0467C14.125 17.2413 14.7779 16.5884 15.5833 16.5884C16.3888 16.5884 17.0417 17.2413 17.0417 18.0467ZM17.0417 23.88C17.0417 24.6855 16.3888 25.3384 15.5833 25.3384C14.7779 25.3384 14.125 24.6855 14.125 23.88C14.125 23.0746 14.7779 22.4217 15.5833 22.4217C16.3888 22.4217 17.0417 23.0746 17.0417 23.88ZM8.29167 19.505C9.09707 19.505 9.75 18.8521 9.75 18.0467C9.75 17.2413 9.09707 16.5884 8.29167 16.5884C7.48626 16.5884 6.83333 17.2413 6.83333 18.0467C6.83333 18.8521 7.48626 19.505 8.29167 19.505ZM8.29167 25.3384C9.09707 25.3384 9.75 24.6855 9.75 23.88C9.75 23.0746 9.09707 22.4217 8.29167 22.4217C7.48626 22.4217 6.83333 23.0746 6.83333 23.88C6.83333 24.6855 7.48626 25.3384 8.29167 25.3384Z" fill="#606C38"/>
</svg>
