<svg width="45" height="43" viewBox="0 0 45 43" fill="none" xmlns="http://www.w3.org/2000/svg">
<path d="M30.8737 29.1704L31.9247 28.1253L29.4841 25.6708L28.4332 26.7159L30.8737 29.1704ZM35.4543 27.6876L39.8629 30.0842L41.516 27.0433L37.1074 24.6467L35.4543 27.6876ZM40.7116 34.8474L37.4335 38.1067L39.8739 40.5612L43.152 37.3019L40.7116 34.8474ZM35.4361 39.1562C32.0904 39.4679 23.4344 39.1901 14.0626 29.8714L11.6221 32.3259C21.8492 42.495 31.583 42.9915 35.7573 42.6025L35.4361 39.1562ZM14.0626 29.8714C5.12928 20.9888 3.64949 13.5178 3.46528 10.2767L0.00957335 10.4731C0.241387 14.5524 2.07372 22.8318 11.6221 32.3259L14.0626 29.8714ZM17.2362 15.6102L17.898 14.9521L15.4575 12.4977L14.7957 13.1557L17.2362 15.6102ZM18.4248 6.56379L15.5151 2.67699L12.7443 4.75132L15.6539 8.63814L18.4248 6.56379ZM5.72885 1.83101L2.10695 5.43234L4.54749 7.88681L8.16938 4.28548L5.72885 1.83101ZM16.016 14.383C14.7957 13.1557 14.7941 13.1574 14.7924 13.159C14.7918 13.1596 14.7902 13.1613 14.789 13.1624C14.7868 13.1647 14.7845 13.167 14.7821 13.1694C14.7775 13.1742 14.7726 13.1791 14.7676 13.1843C14.7576 13.1947 14.7471 13.2059 14.736 13.218C14.7137 13.2421 14.6892 13.2698 14.6631 13.301C14.6108 13.3634 14.5515 13.4403 14.4892 13.5322C14.3643 13.7166 14.2282 13.9603 14.1127 14.2668C13.877 14.8923 13.7507 15.7168 13.9091 16.7378C14.2188 18.7344 15.5939 21.3719 19.1164 24.8742L21.5568 22.4197C18.2605 19.1421 17.4752 17.1474 17.3294 16.2071C17.2599 15.7596 17.3319 15.5394 17.3518 15.4872C17.3638 15.455 17.3696 15.4517 17.3548 15.4737C17.3474 15.4845 17.3352 15.5013 17.316 15.5241C17.3066 15.5355 17.2953 15.5483 17.2821 15.5627C17.2754 15.5699 17.2685 15.5774 17.2606 15.5853C17.2569 15.5893 17.253 15.5933 17.2489 15.5975C17.2468 15.5996 17.2447 15.6017 17.2426 15.6038C17.2417 15.6048 17.2401 15.6065 17.2394 15.607C17.2378 15.6086 17.2362 15.6102 16.016 14.383ZM19.1164 24.8742C22.6399 28.3777 25.2897 29.7413 27.2896 30.0482C28.3116 30.2048 29.1356 30.0798 29.7607 29.8469C30.0672 29.7327 30.3113 29.5982 30.4959 29.4745C30.5882 29.4127 30.6653 29.3538 30.7278 29.3019C30.7592 29.2761 30.7869 29.2518 30.8111 29.2297C30.8234 29.2186 30.8347 29.2082 30.845 29.1983C30.8504 29.1932 30.8552 29.1884 30.86 29.1838C30.8624 29.1814 30.8647 29.1791 30.867 29.1768C30.8681 29.1757 30.87 29.1741 30.8704 29.1736C30.872 29.172 30.8737 29.1704 29.6534 27.943C28.4332 26.7159 28.4348 26.7142 28.4365 26.7126C28.4369 26.7122 28.4385 26.7105 28.4397 26.7094C28.4418 26.7073 28.4438 26.7052 28.4459 26.7032C28.4503 26.6992 28.4542 26.6953 28.4581 26.6914C28.4662 26.6838 28.4738 26.6769 28.481 26.6702C28.4953 26.6572 28.5082 26.6459 28.5198 26.6367C28.5424 26.6178 28.5592 26.6058 28.5696 26.5986C28.5911 26.5843 28.5867 26.5908 28.5525 26.6035C28.496 26.6245 28.2696 26.6967 27.8146 26.6268C26.8609 26.4807 24.8522 25.6962 21.5568 22.4197L19.1164 24.8742ZM15.5151 2.67699C13.163 -0.464913 8.53787 -0.96207 5.72885 1.83101L8.16938 4.28548C9.39624 3.06556 11.5752 3.18972 12.7443 4.75132L15.5151 2.67699ZM3.46528 10.2767C3.41989 9.47803 3.78619 8.64377 4.54749 7.88681L2.10695 5.43234C0.867073 6.66518 -0.107672 8.41036 0.00957335 10.4731L3.46528 10.2767ZM37.4335 38.1067C36.7994 38.7374 36.1196 39.0925 35.4361 39.1562L35.7573 42.6025C37.4524 42.4444 38.8413 41.5881 39.8739 40.5612L37.4335 38.1067ZM17.898 14.9521C20.1697 12.6932 20.3386 9.12027 18.4248 6.56379L15.6539 8.63814C16.585 9.88185 16.4465 11.5143 15.4575 12.4977L17.898 14.9521ZM39.8629 30.0842C41.75 31.1101 42.0439 33.5224 40.7116 34.8474L43.152 37.3019C46.2448 34.2266 45.2911 29.0954 41.516 27.0433L39.8629 30.0842ZM31.9247 28.1253C32.8108 27.2443 34.2371 27.026 35.4543 27.6876L37.1074 24.6467C34.607 23.2873 31.5038 23.6628 29.4841 25.6708L31.9247 28.1253Z" fill="#283618"/>
</svg>
