<svg width="14" height="14" viewBox="0 0 14 14" fill="none" xmlns="http://www.w3.org/2000/svg">
<g clip-path="url(#clip0_209_1038)">
<path d="M13.125 6.125C13.125 2.75625 10.3687 0 7 0C3.63125 0 0.875 2.75625 0.875 6.125C0.875 9.20938 3.15 11.7688 6.125 12.1844V12.6875H4.375C4.04688 12.6875 3.71875 13.0156 3.71875 13.3438C3.71875 13.6719 4.04688 14 4.375 14H9.625C9.975 14 10.2812 13.7156 10.2812 13.3438C10.2812 12.9719 9.975 12.6875 9.625 12.6875H7.875V12.1844C10.85 11.7688 13.125 9.20938 13.125 6.125ZM1.3125 6.125C1.3125 2.99688 3.87188 0.4375 7 0.4375C10.1281 0.4375 12.6875 2.99688 12.6875 6.125C12.6875 9.25313 10.1281 11.8125 7 11.8125C3.87188 11.8125 1.3125 9.25313 1.3125 6.125ZM9.625 13.125C9.75625 13.125 9.84375 13.2344 9.84375 13.3438C9.84375 13.4531 9.75625 13.5625 9.625 13.5625H4.375C4.2875 13.5625 4.15625 13.4312 4.15625 13.3438C4.15625 13.2563 4.2875 13.125 4.375 13.125H6.125H7.875H9.625ZM7.4375 12.6875H6.5625V12.2281C6.71562 12.2281 6.84688 12.25 7 12.25C7.15312 12.25 7.28438 12.25 7.4375 12.2281V12.6875Z" fill="black"/>
<path d="M8.57495 7.67817C8.42183 7.32817 8.11558 6.97817 7.89683 6.73755C7.98433 6.6063 8.04995 6.4313 8.07183 6.2563C8.2687 6.2563 8.50933 6.32192 9.0562 6.75942C9.07808 6.7813 9.12183 6.80317 9.16558 6.84692C9.44995 7.06567 9.88745 7.43755 10.4125 7.43755C10.6093 7.43755 10.8281 7.37192 11.0468 7.24067C11.4187 6.97817 11.6375 6.5188 11.6375 5.88442C11.6375 5.05317 11.2 3.91567 10.3906 3.39067C9.16558 2.60317 8.0062 3.1063 7.43745 3.9813C7.24058 4.26567 7.06558 4.70317 6.9562 5.05317C6.80308 5.05317 6.67183 5.09692 6.54058 5.14067C6.4312 4.96567 6.3437 4.72505 6.40933 4.02505C6.40933 3.9813 6.40933 3.93755 6.4312 3.8938C6.47495 3.39067 6.58433 2.47192 5.7312 2.10005C5.31558 1.92505 4.79058 2.01255 4.28745 2.34067C3.58745 2.80005 2.88745 3.78442 2.88745 4.74692C2.88745 6.21255 3.95933 6.89067 4.98745 6.91255C5.00933 6.91255 5.00933 6.91255 5.0312 6.91255C5.40308 6.91255 5.8187 6.80317 6.10308 6.73755C6.1687 6.84692 6.2562 6.91255 6.3437 7.00005C6.23433 7.17505 6.01558 7.41567 5.35933 7.67817C5.31558 7.70005 5.27183 7.70005 5.22808 7.72192C4.7687 7.89692 3.8937 8.22505 3.93745 9.1438C3.95933 9.60317 4.26558 10.0188 4.79058 10.325C5.22808 10.5875 5.86245 10.7625 6.47495 10.7625C6.84683 10.7625 7.24058 10.6969 7.5687 10.5219C8.8812 9.86567 9.01245 8.6188 8.57495 7.67817ZM6.3437 6.12505C6.3437 5.75317 6.62808 5.4688 6.99995 5.4688C7.37183 5.4688 7.6562 5.75317 7.6562 6.12505C7.6562 6.49692 7.37183 6.7813 6.99995 6.7813C6.62808 6.7813 6.3437 6.49692 6.3437 6.12505ZM7.78745 4.20005C8.22495 3.56567 9.09995 3.06255 10.15 3.74067C10.7406 4.11255 11.1781 5.0313 11.2 5.86255C11.2 6.12505 11.1562 6.62817 10.8062 6.84692C10.3468 7.15317 9.90933 6.84692 9.44995 6.47505C9.4062 6.45317 9.36245 6.40942 9.34058 6.38755C8.68433 5.88442 8.3562 5.8188 8.04995 5.79692C7.96245 5.4688 7.72183 5.2063 7.3937 5.09692C7.4812 4.81255 7.63433 4.44067 7.78745 4.20005ZM4.98745 6.47505C4.22183 6.45317 3.32495 5.9938 3.30308 4.74692C3.30308 4.04692 3.82808 3.17192 4.5062 2.71255C4.72495 2.55942 5.16245 2.34067 5.53433 2.4938C6.03745 2.71255 6.03745 3.25942 5.97183 3.82817C5.97183 3.87192 5.97183 3.93755 5.94995 3.9813C5.88433 4.8563 6.03745 5.16255 6.1687 5.3813C6.01558 5.57817 5.9062 5.84067 5.9062 6.12505C5.9062 6.19067 5.9062 6.2563 5.92808 6.32192C5.66558 6.38755 5.2937 6.47505 4.98745 6.47505ZM5.00933 9.9313C4.7687 9.80005 4.37495 9.51567 4.37495 9.10005C4.35308 8.55317 4.83433 8.31255 5.3812 8.11567C5.42495 8.0938 5.4687 8.07192 5.51245 8.07192C6.3437 7.7438 6.58433 7.41567 6.71558 7.19692C6.80308 7.2188 6.89058 7.24067 6.99995 7.24067C7.2187 7.24067 7.41558 7.17505 7.59058 7.06567C7.76558 7.26255 8.04995 7.59067 8.1812 7.87505C8.50933 8.57505 8.48745 9.5813 7.37183 10.15C6.73745 10.4344 5.7312 10.3469 5.00933 9.9313Z" fill="black"/>
</g>
<defs>
<clipPath id="clip0_209_1038">
<rect width="14" height="14" fill="white"/>
</clipPath>
</defs>
</svg>
