<svg width="52" height="52" viewBox="0 0 52 52" fill="none" xmlns="http://www.w3.org/2000/svg">
<path d="M49.1562 24.7812H43.55L46.9625 21.3687C47.45 20.8812 47.45 20.15 46.9625 19.6625C46.475 19.175 45.7438 19.175 45.2563 19.6625L40.1375 24.7812H36.3188L38.35 22.75C38.8375 22.2625 38.8375 21.5312 38.35 21.0437C37.8625 20.5562 37.1312 20.5562 36.6437 21.0437L32.9062 24.7812H29.0063L36.3188 17.4688H43.55C44.2 17.4688 44.7687 16.9 44.7687 16.25C44.7687 15.6 44.2 15.0312 43.55 15.0312H38.7563L43.225 10.5625C43.7125 10.075 43.7125 9.34375 43.225 8.85625C42.7375 8.36875 42.0062 8.36875 41.5187 8.85625L37.05 13.325V8.53125C36.9688 7.8 36.4813 7.3125 35.75 7.3125C35.0187 7.3125 34.5312 7.88125 34.5312 8.53125V15.7625L27.2188 23.075V19.175L30.9562 15.4375C31.4437 14.95 31.4437 14.2188 30.9562 13.7312C30.4687 13.2437 29.7375 13.2437 29.25 13.7312L27.2188 15.7625V11.9437L32.3375 6.825C32.825 6.3375 32.825 5.60625 32.3375 5.11875C31.85 4.63125 31.1188 4.63125 30.6313 5.11875L27.2188 8.53125V2.84375C27.2188 2.19375 26.65 1.625 26 1.625C25.35 1.625 24.7812 2.19375 24.7812 2.84375V8.45L21.3687 5.0375C20.8812 4.55 20.15 4.55 19.6625 5.0375C19.175 5.525 19.175 6.25625 19.6625 6.74375L24.7812 11.8625V15.6812L22.75 13.65C22.2625 13.1625 21.5312 13.1625 21.0437 13.65C20.5562 14.1375 20.5562 14.8687 21.0437 15.3562L24.7812 19.0938V22.9937L17.4688 15.6812V8.45C17.4688 7.8 16.9 7.3125 16.25 7.3125C15.6 7.3125 15.0312 7.88125 15.0312 8.53125V13.325L10.5625 8.85625C10.075 8.36875 9.34375 8.36875 8.85625 8.85625C8.36875 9.34375 8.36875 10.075 8.85625 10.5625L13.325 15.0312H8.53125C7.8 15.0312 7.3125 15.5188 7.3125 16.25C7.3125 16.9812 7.88125 17.4688 8.53125 17.4688H15.7625L23.075 24.7812H19.175L15.4375 21.0437C14.95 20.5562 14.2188 20.5562 13.7312 21.0437C13.2437 21.5312 13.2437 22.2625 13.7312 22.75L15.7625 24.7812H11.9437L6.825 19.6625C6.3375 19.175 5.60625 19.175 5.11875 19.6625C4.63125 20.15 4.63125 20.8812 5.11875 21.3687L8.53125 24.7812H2.84375C2.19375 24.7812 1.625 25.35 1.625 26C1.625 26.65 2.19375 27.2188 2.84375 27.2188H8.45L5.0375 30.6313C4.55 31.1188 4.55 31.85 5.0375 32.3375C5.28125 32.5812 5.60625 32.6625 5.93125 32.6625C6.25625 32.6625 6.58125 32.5812 6.825 32.3375L11.9437 27.2188H15.7625L13.65 29.25C13.1625 29.7375 13.1625 30.4687 13.65 30.9562C13.8937 31.2 14.2188 31.2812 14.5437 31.2812C14.8687 31.2812 15.1938 31.2 15.4375 30.9562L19.175 27.2188H23.075L15.7625 34.5312H8.53125C7.8 34.5312 7.3125 35.1 7.3125 35.75C7.3125 36.4 7.88125 36.9688 8.53125 36.9688H13.325L8.85625 41.4375C8.36875 41.925 8.36875 42.6562 8.85625 43.1437C9.1 43.3875 9.425 43.4688 9.75 43.4688C10.075 43.4688 10.4 43.3875 10.6438 43.1437L15.1125 38.675V43.4688C15.1125 44.1188 15.6813 44.6875 16.3313 44.6875C16.9813 44.6875 17.55 44.1188 17.55 43.4688V36.2375L24.8625 28.925V32.825L21.0437 36.5625C20.5562 37.05 20.5562 37.7812 21.0437 38.2687C21.2875 38.5125 21.6125 38.5938 21.9375 38.5938C22.2625 38.5938 22.5875 38.5125 22.8313 38.2687L24.8625 36.2375V40.0562L19.7437 45.175C19.2562 45.6625 19.2562 46.3937 19.7437 46.8813C19.9875 47.125 20.3125 47.2062 20.6375 47.2062C20.9625 47.2062 21.2875 47.125 21.5312 46.8813L24.9438 43.4688V49.075C24.9438 49.725 25.5125 50.2938 26.1625 50.2938C26.8125 50.2938 27.3813 49.725 27.3813 49.075V43.4688L30.7938 46.8813C31.0375 47.125 31.3625 47.2062 31.6875 47.2062C32.0125 47.2062 32.3375 47.125 32.5812 46.8813C33.0687 46.3937 33.0687 45.6625 32.5812 45.175L27.4625 40.0562V36.2375L29.4937 38.2687C29.7375 38.5125 30.0625 38.5938 30.3875 38.5938C30.7125 38.5938 31.0375 38.5125 31.2812 38.2687C31.7687 37.7812 31.7687 37.05 31.2812 36.5625L27.5438 32.825V28.925L34.8563 36.2375V43.4688C34.8563 44.1188 35.425 44.6875 36.075 44.6875C36.725 44.6875 37.2938 44.1188 37.2938 43.4688V38.675L41.7625 43.1437C42.0063 43.3875 42.3312 43.4688 42.6562 43.4688C42.9813 43.4688 43.3062 43.3875 43.55 43.1437C44.0375 42.6562 44.0375 41.925 43.55 41.4375L39.0812 36.9688H43.875C44.525 36.9688 45.0938 36.4 45.0938 35.75C45.0938 35.1 44.525 34.5312 43.875 34.5312H36.6437L29.3312 27.2188H33.2313L36.9688 30.9562C37.2125 31.2 37.5375 31.2812 37.8625 31.2812C38.1875 31.2812 38.5125 31.2 38.7563 30.9562C39.2438 30.4687 39.2438 29.7375 38.7563 29.25L36.725 27.2188H40.5438L45.6625 32.3375C45.9062 32.5812 46.2313 32.6625 46.5562 32.6625C46.8812 32.6625 47.2063 32.5812 47.45 32.3375C47.9375 31.85 47.9375 31.1188 47.45 30.6313L44.0375 27.2188H49.6437C50.2937 27.2188 50.8625 26.65 50.8625 26C50.8625 25.35 49.8063 24.7812 49.1562 24.7812Z" fill="#75D6FF"/>
</svg>
