<svg width="52" height="52" viewBox="0 0 52 52" fill="none" xmlns="http://www.w3.org/2000/svg">
<g clip-path="url(#clip0_93_828)">
<path d="M43.7226 33.3481L51.0656 26.0051L43.7226 18.6672V8.28247H33.3429L26 0.94458L18.657 8.28247H8.27729V18.6672L0.934326 26.0051L8.27729 33.3481V43.7278H18.657L26 51.0708L33.3429 43.7278H43.7226V33.3481Z" fill="#FCD170"/>
<path d="M26 51.5786C25.868 51.5786 25.741 51.5278 25.6395 51.4313L18.4488 44.2356H8.27734C7.99805 44.2356 7.76953 44.0071 7.76953 43.7278V33.5563L0.578906 26.3657C0.482422 26.2692 0.431641 26.1422 0.431641 26.0051C0.431641 25.868 0.4875 25.7411 0.578906 25.6446L7.76953 18.454V8.28247C7.76953 8.00317 7.99805 7.77466 8.27734 7.77466H18.4488L25.6395 0.584033C25.7359 0.487549 25.8629 0.436768 26 0.436768C26.1371 0.436768 26.2641 0.492627 26.3605 0.584033L33.5512 7.77466H43.7227C44.002 7.77466 44.2305 8.00317 44.2305 8.28247V18.454L51.4211 25.6446C51.5176 25.7411 51.5684 25.868 51.5684 26.0051C51.5684 26.1422 51.5125 26.2692 51.4211 26.3657L44.2305 33.5563V43.7278C44.2305 44.0071 44.002 44.2356 43.7227 44.2356H33.5512L26.3605 51.4262C26.259 51.5278 26.132 51.5786 26 51.5786ZM8.78516 43.22H18.657C18.7941 43.22 18.9211 43.2758 19.0176 43.3672L26 50.3547L32.9824 43.3723C33.0789 43.2758 33.2059 43.225 33.343 43.225H43.2148V33.3481C43.2148 33.211 43.2707 33.084 43.3621 32.9875L50.3445 26.0051L43.3621 19.0227C43.2656 18.9262 43.2148 18.7993 43.2148 18.6622V8.79028H33.343C33.2059 8.79028 33.0789 8.73442 32.9824 8.64302L26 1.6606L19.0176 8.64302C18.9211 8.7395 18.7941 8.79028 18.657 8.79028H8.78516V18.6622C8.78516 18.7993 8.7293 18.9262 8.63789 19.0227L1.65547 26.0051L8.63789 32.9875C8.73438 33.084 8.78516 33.211 8.78516 33.3481V43.22Z" fill="black"/>
<path d="M12.9087 26.0051C12.9087 27.7243 13.2473 29.4266 13.9052 31.015C14.5631 32.6033 15.5274 34.0465 16.7431 35.2621C17.9587 36.4778 19.4019 37.4421 20.9902 38.1C22.5786 38.7579 24.2809 39.0965 26.0001 39.0965C27.7193 39.0965 29.4216 38.7579 31.01 38.1C32.5983 37.4421 34.0415 36.4778 35.2571 35.2621C36.4728 34.0465 37.4371 32.6033 38.095 31.015C38.7529 29.4266 39.0915 27.7243 39.0915 26.0051C39.0915 22.533 37.7122 19.2032 35.2571 16.7481C32.802 14.293 29.4722 12.9137 26.0001 12.9137C22.528 12.9137 19.1982 14.293 16.7431 16.7481C14.288 19.2032 12.9087 22.533 12.9087 26.0051Z" fill="#F7DDAD"/>
<path d="M26.0001 39.6043C22.3692 39.6043 18.9517 38.1875 16.3821 35.6231C13.8126 33.0535 12.4009 29.641 12.4009 26.0051C12.4009 22.3692 13.8177 18.9567 16.3821 16.3871C18.9517 13.8176 22.3642 12.4059 26.0001 12.4059C29.631 12.4059 33.0485 13.8227 35.6181 16.3871C38.1876 18.9567 39.5993 22.3692 39.5993 26.0051C39.5993 29.641 38.1876 33.0535 35.6181 35.6231C33.0485 38.1926 29.631 39.6043 26.0001 39.6043ZM26.0001 13.4215C22.6384 13.4215 19.4798 14.7317 17.1032 17.1082C14.7267 19.4848 13.4165 22.6434 13.4165 26.0051C13.4165 29.3668 14.7267 32.5254 17.1032 34.902C19.4798 37.2785 22.6384 38.5887 26.0001 38.5887C29.3618 38.5887 32.5204 37.2785 34.897 34.902C37.2735 32.5254 38.5837 29.3668 38.5837 26.0051C38.5837 22.6434 37.2735 19.4848 34.897 17.1082C32.5204 14.7317 29.3618 13.4215 26.0001 13.4215Z" fill="black"/>
</g>
<defs>
<clipPath id="clip0_93_828">
<rect width="52" height="52" fill="white"/>
</clipPath>
</defs>
</svg>
