<svg width="52" height="52" viewBox="0 0 52 52" fill="none" xmlns="http://www.w3.org/2000/svg">
<path d="M34.0365 2.94951C33.7684 2.94951 33.4805 2.94931 33.1826 2.75071C32.9462 2.75071 32.7198 2.94951 32.4914 2.94951H32.2948H31.9731C31.7824 3.14811 31.5918 3.14801 31.4091 3.34661H31.2482C31.1052 3.34661 30.994 3.54511 30.8589 3.74371C30.7378 3.74371 30.6047 3.7439 30.4915 3.9425H30.4677C30.3624 4.1411 30.2592 4.141 30.1579 4.3396C30.0348 4.3396 29.8818 4.33955 29.7686 4.53815C29.5085 4.93535 29.2642 5.13395 29.0457 5.53115C29.012 5.53115 28.9544 5.7297 28.9206 5.7297C28.5909 6.12689 28.3209 6.72279 28.0865 7.31858C27.8363 7.91438 27.6714 8.51023 27.4967 9.10602C27.4808 9.10602 27.443 9.30457 27.4291 9.30457C27.4152 9.30457 27.4311 9.50312 27.4172 9.50312C27.0697 10.8933 26.7698 12.2835 26.4918 13.4751C26.4679 13.6737 26.46 13.6738 26.4362 13.8724C26.2673 14.6668 26.0807 15.4611 25.8364 16.2555C25.6477 16.8513 25.459 17.6457 25.2704 18.2415C24.9923 17.4471 24.6944 16.454 24.4164 15.6596C23.195 12.0849 23.0699 8.31163 20.9661 5.13405C19.8403 3.54526 17.8948 1.95632 15.8139 2.75071C15.2542 2.94931 14.7909 3.3467 14.4942 3.9425C13.2379 6.52429 14.2033 9.50327 15.5587 11.8865C17.5369 14.8654 19.3192 17.8444 21.1004 21.022C19.3766 20.029 17.6446 19.036 15.9466 18.043H15.7384C15.5774 17.8444 15.4022 17.8442 15.2415 17.6456C14.2432 17.0498 13.2452 16.4542 12.2133 15.8584H12.0401C10.9313 15.2626 9.8031 14.8653 8.55312 14.4681H8.29951H7.20424H6.65114H5.74136C5.57712 14.6667 5.40374 14.6666 5.24605 14.6666H5.08519C4.89195 14.8652 4.69891 14.8654 4.52156 14.8654C4.41392 15.064 4.30529 15.064 4.19944 15.064C3.95196 15.2626 3.74195 15.461 3.55717 15.6596C3.5449 15.6596 3.54638 15.6598 3.53435 15.8584C3.36769 16.057 3.20638 16.2555 3.12293 16.4541C3.02514 16.6527 2.96455 17.0499 2.94239 17.2485H2.91967C2.904 17.6457 2.94121 17.8444 2.98066 18.043C2.99214 18.043 2.95383 18.2415 2.97003 18.2415C3.00914 18.2415 3.06425 18.4401 3.1099 18.4401C3.17485 18.6387 3.25977 18.8374 3.3547 19.036C3.3828 19.2346 3.39507 19.2345 3.42464 19.2345C3.50651 19.4331 3.64066 19.433 3.7377 19.6316C3.82476 19.8302 3.89739 19.8304 3.99305 20.029C4.21751 20.2276 4.43954 20.4262 4.69971 20.8234C4.95928 21.022 5.27723 21.2205 5.56739 21.4191C5.63471 21.4191 5.70859 21.6176 5.77552 21.6176C7.90529 23.0078 10.3739 23.4052 12.828 23.8024C13.0087 23.8024 13.1902 24.0009 13.3705 24.0009C14.3588 24.1995 15.3529 24.398 16.3011 24.5966C17.3078 24.9938 18.3172 25.1924 19.3245 25.391C15.9221 26.5826 12.5106 27.5756 9.04684 28.37C6.45373 29.1644 3.68248 30.7532 2.83685 33.335C2.70852 33.9308 2.74478 34.7252 3.01809 35.1224C3.95635 37.307 6.58354 37.3071 8.48909 36.9099C12.1284 36.1155 14.851 33.3349 18.0868 31.5475C18.9108 31.1503 19.7548 30.7532 20.5808 30.1575C20.2382 30.9518 19.8958 31.5476 19.5528 32.1434C19.1608 32.9378 18.7787 33.5336 18.3763 34.328C17.6078 35.5196 16.8283 36.9098 16.1246 38.1014C16.0905 38.1014 16.0329 38.3 15.9985 38.3C15.9705 38.3 15.958 38.4985 15.9304 38.4985C15.3558 39.4915 14.8568 40.6832 14.622 41.8748C14.6117 42.0734 14.6206 42.0734 14.6113 42.0734C14.5485 42.4706 14.4749 43.0663 14.4675 43.2649C14.4639 43.6621 14.539 43.8607 14.5756 44.2579C14.5948 44.4565 14.6143 44.6552 14.6472 44.8538C14.6808 44.8538 14.6699 45.0523 14.7187 45.2509C14.7348 45.2509 14.7708 45.4495 14.7886 45.4495C14.8564 45.6481 14.9388 45.8468 15.0335 46.0454C15.0818 46.0454 15.1173 46.2439 15.1733 46.2439C15.3302 46.6411 15.5531 46.8398 15.7872 47.0384C16.0011 47.0384 16.2712 47.2369 16.55 47.4355C16.7993 47.4355 17.0702 47.4356 17.346 47.6342C17.6028 47.6342 17.8477 47.6341 18.0949 47.4355C18.1587 47.4355 18.2288 47.6341 18.2909 47.4355C18.6021 47.4355 18.8979 47.2369 19.1765 47.2369C19.2265 47.0383 19.2881 47.0384 19.3376 47.0384C19.4815 47.0384 19.5924 46.8398 19.7278 46.8398C19.9804 46.6412 20.2015 46.4425 20.4279 46.2439C20.5484 46.0453 20.7059 46.0454 20.8183 45.8468C21.0989 45.6482 21.3186 45.251 21.5396 44.8538C21.5772 44.8538 21.6292 44.8539 21.6655 44.6553C23.1651 42.2721 23.5405 39.4916 24.0946 36.9099C24.3011 35.9169 24.5275 35.1224 24.75 34.1294C24.9386 33.5336 25.1253 32.7392 25.316 32.1434C25.594 32.9378 25.8919 33.9309 26.1699 34.9239C27.3893 38.3001 27.5145 42.0733 29.6196 45.2509C30.7457 46.8397 32.6919 48.6272 34.7713 47.6342C35.3313 47.4356 35.796 47.0384 36.0919 46.6413C37.3491 44.0595 36.3819 40.8817 35.0275 38.4985C33.0494 35.7181 31.266 32.5405 29.4865 29.5616C30.4061 29.9588 31.3156 30.5547 32.2352 30.9519C33.0593 31.3491 33.8537 31.7462 34.6402 32.342C34.8745 32.342 35.1109 32.5407 35.3452 32.7393C36.2886 33.3351 37.2518 33.9308 38.2229 34.328C38.2785 34.328 38.3182 34.5265 38.3719 34.5265H38.5466C39.1186 34.9237 39.6866 35.1224 40.2903 35.321C40.8543 35.5196 41.4283 35.7183 42.032 35.9169H42.2862C42.6993 35.9169 43.166 36.1154 43.5771 36.1154C44.0141 36.1154 44.4212 35.9169 44.8442 35.9169H45.1222C45.2474 35.7183 45.3804 35.7183 45.5016 35.7183C45.6247 35.7183 45.7578 35.7181 45.8809 35.5195H46.0636C46.1728 35.3209 46.2801 35.321 46.3873 35.321C46.4409 35.321 46.4608 35.1224 46.5124 35.1224C46.6971 35.1224 46.8778 34.9239 47.0288 34.7253H47.0526C47.2115 34.5267 47.3545 34.1295 47.4637 33.9309C47.5809 33.7323 47.6147 33.335 47.6444 33.1364C47.6663 32.9378 47.6484 32.7392 47.6047 32.342C47.5948 32.342 47.6325 32.342 47.6166 32.1434C47.5769 32.1434 47.5213 31.9449 47.4756 31.9449C47.3962 31.7463 47.3307 31.5476 47.2314 31.349C47.2055 31.349 47.1897 31.1504 47.1618 31.1504C47.1221 31.1504 47.0745 30.9519 47.0347 30.9519C46.9037 30.7533 46.7507 30.5546 46.5939 30.356H46.5363C46.4429 30.356 46.3555 30.1575 46.2582 30.1575C46.1728 29.9589 46.1252 29.9589 46.0378 29.7603C45.9881 29.7603 45.9365 29.7602 45.8868 29.5616C45.5611 29.363 45.1818 29.1646 44.8104 28.7674C44.2921 28.5688 43.7598 28.1715 43.2038 27.9729C42.6119 27.7743 41.9903 27.5756 41.3687 27.377H41.1959H40.9993C39.9309 26.9798 38.8505 26.7812 37.7582 26.5826C37.4921 26.5826 37.2279 26.384 36.9618 26.384C35.0632 25.9868 33.1487 25.3911 31.262 24.9939C34.664 24.0009 38.0759 22.8093 41.5395 22.0149C44.1332 21.2206 46.9037 19.6318 47.7497 17.05C47.8768 16.4542 47.8411 15.8583 47.569 15.2625C46.6296 13.2765 44.0021 13.0779 42.0976 13.4751C38.4573 14.2695 35.7345 17.05 32.4993 18.8374C31.6751 19.2346 30.8311 19.6317 30.0049 20.2275C30.3485 19.6317 30.6901 18.8373 31.0336 18.2415C31.4765 17.4471 31.9253 16.6528 32.3821 15.8584C33.103 14.6668 33.8081 13.4751 34.4615 12.2836C34.521 12.085 34.5985 12.0851 34.6561 11.8865C34.952 11.2907 35.2558 10.8934 35.4763 10.2976C35.6848 9.70177 35.8497 9.10593 35.9648 8.51013C35.9768 8.31153 35.9629 8.31158 35.9748 8.31158C36.0324 7.91438 36.1138 7.51723 36.1178 7.12003C36.1217 6.92144 36.0562 6.72274 36.0463 6.52414C36.0304 6.32554 36.0006 5.9283 35.939 5.7297C35.9072 5.5311 35.9132 5.33264 35.8675 5.13405C35.8497 5.13405 35.8159 5.13409 35.798 4.9355C35.7345 4.7369 35.6372 4.5382 35.5518 4.3396C35.5041 4.3396 35.4683 4.14105 35.4127 4.14105C35.379 4.14105 35.3015 3.9425 35.2618 3.9425C35.1228 3.7439 34.9818 3.54516 34.7991 3.54516H34.7415C34.5389 3.34656 34.2947 3.14811 34.0365 2.94951Z" fill="#C0392B"/>
<path d="M26.0013 2.15518C25.7054 2.13483 25.4174 2.19329 25.1314 2.27931C24.907 2.35169 24.7104 2.46907 24.5118 2.58962C24.4562 2.62374 24.3767 2.61375 24.3251 2.65168C24.2337 2.72957 24.1623 2.81755 24.0769 2.89993C23.9239 3.03011 23.777 3.17952 23.6419 3.33436C23.6062 3.37907 23.5545 3.41285 23.5188 3.45849C23.4155 3.5872 23.3619 3.75259 23.2705 3.89292C23.1891 4.01848 23.0938 4.13436 23.0223 4.2653C23.0124 4.28158 23.0302 4.31097 23.0223 4.32746C22.9568 4.45039 22.8932 4.57253 22.8356 4.69963C22.7641 4.85494 22.6489 4.97549 22.5874 5.13417C22.4523 5.49661 22.361 5.93035 22.2775 6.31345C22.2636 6.37442 22.2279 6.43936 22.216 6.49953C22.0988 7.10288 22.0432 7.69768 22.0293 8.29943C22.0142 8.94289 22.0869 9.58119 22.1524 10.2233C22.1604 10.2828 22.1465 10.3502 22.1524 10.4093C22.1643 10.4735 22.2041 10.5317 22.216 10.5956C22.3808 11.9598 22.5973 13.3303 22.8356 14.6917C22.8515 14.7964 22.8833 14.8975 22.8992 15.0021C23.0342 15.8063 23.1534 16.6177 23.209 17.4225C23.2904 18.1468 23.3738 18.8707 23.4572 19.5945C22.8634 18.8496 22.2497 18.1053 21.6569 17.3603C19.2618 14.6141 17.7312 11.0737 14.6438 8.98202C13.0147 7.91932 10.5568 6.99027 8.93409 8.54768C8.48645 8.93773 8.21794 9.51982 8.12738 10.0991C7.90654 12.9639 9.91517 15.4252 12.0374 17.1121C14.9624 19.137 17.7537 21.3573 20.5398 23.5661C18.5989 23.3437 16.6393 23.0954 14.706 22.8214C14.6224 22.8075 14.5413 22.7757 14.4577 22.7598C14.2742 22.734 14.0826 22.7241 13.8991 22.6982C12.7412 22.4838 11.5842 22.2693 10.4236 22.1382C10.3644 22.1322 10.2971 22.1461 10.2375 22.1382C8.99526 22.0115 7.76255 21.9612 6.51376 22.2017C6.43532 22.2176 6.34535 22.2435 6.26552 22.2633C5.92333 22.3408 5.53626 22.456 5.21036 22.5731C5.03261 22.6407 4.88764 22.7419 4.71386 22.8214C4.43364 22.9505 4.16593 23.0895 3.90716 23.2563C3.76683 23.3477 3.60143 23.4013 3.47272 23.5046C3.42708 23.5403 3.3933 23.5919 3.3486 23.6277C3.19375 23.7627 3.04434 23.9097 2.91416 24.0626C2.8318 24.148 2.7438 24.2195 2.66591 24.3109C2.49313 24.5492 2.37955 24.8332 2.29354 25.1172C2.28764 25.137 2.29909 25.1609 2.29354 25.1807C2.21987 25.4469 2.15048 25.711 2.16942 25.987C2.1752 26.2691 2.21992 26.5471 2.29354 26.7934C2.29908 26.8132 2.28752 26.8351 2.29354 26.8569C2.36592 27.0813 2.4833 27.2779 2.60385 27.4765C2.63797 27.5321 2.62798 27.6116 2.66591 27.6632C2.7438 27.7546 2.8318 27.8261 2.91416 27.9115C3.04434 28.0644 3.19375 28.2113 3.3486 28.3464C3.3933 28.3821 3.42708 28.4338 3.47272 28.4695C3.60143 28.5728 3.76683 28.6264 3.90716 28.7178C4.03271 28.7992 4.14859 28.8945 4.27953 28.966C4.58755 29.1348 4.88267 29.2778 5.21036 29.401C5.53626 29.5181 5.92333 29.6333 6.26552 29.7108C6.34535 29.7306 6.43532 29.7564 6.51376 29.7723C8.99109 30.249 11.4408 29.7326 13.8991 29.2758C14.0826 29.25 14.2742 29.2401 14.4577 29.2143C15.4497 29.0355 16.4441 28.8469 17.4367 28.7793C18.472 28.6622 19.5039 28.5271 20.5398 28.408C17.7537 30.6164 14.9624 32.8367 12.0374 34.8624C9.91517 36.5485 7.90654 39.0112 8.12738 41.875C8.21794 42.4549 8.48645 43.0368 8.93409 43.426C10.5568 44.983 13.0147 44.0556 14.6438 42.9911C17.7312 40.8998 19.2618 37.3608 21.6569 34.6142C22.2497 33.8694 22.8634 33.1247 23.4572 32.3799C23.3738 33.1028 23.2904 33.8277 23.209 34.5506C23.1037 35.3549 23.0143 36.1712 22.8992 36.9715C22.6509 38.4372 22.3927 39.9108 22.216 41.3785C22.2041 41.442 22.1643 41.5016 22.1524 41.5651C22.1465 41.6247 22.1604 41.6903 22.1524 41.7518C22.0257 42.9931 21.9755 44.2264 22.216 45.4736C22.2279 45.5351 22.2636 45.6007 22.2775 45.6602C22.361 46.0435 22.4523 46.4765 22.5874 46.8399C22.6986 47.1319 22.8753 47.3722 23.0223 47.6462C23.1017 47.7952 23.1792 47.9402 23.2705 48.0812C23.3619 48.2222 23.4155 48.387 23.5188 48.5161C23.5545 48.5618 23.6062 48.5955 23.6419 48.6392C23.777 48.7941 23.9239 48.9431 24.0769 49.0742C24.1623 49.1556 24.2337 49.245 24.3251 49.3224C24.5634 49.4952 24.8474 49.6084 25.1314 49.6958C25.3955 49.7792 25.6994 49.8129 26.0013 49.8189C26.2773 49.8388 26.5415 49.7693 26.8076 49.6958C27.0558 49.6203 27.2763 49.515 27.4908 49.384C27.5464 49.3502 27.6258 49.3601 27.6775 49.3224C27.9277 49.1079 28.1581 48.8855 28.3606 48.6392C28.3964 48.5975 28.448 48.5598 28.4838 48.5161C28.587 48.383 28.6426 48.2222 28.732 48.0812C28.9008 47.821 29.0359 47.5588 29.1669 47.2748C29.2365 47.1219 29.3556 46.9968 29.4152 46.8399C29.5622 46.4507 29.6376 46.0396 29.725 45.6602C29.7389 45.5947 29.7747 45.5411 29.7866 45.4736C30.3148 42.7289 29.6456 40.0081 29.1669 37.2833C29.0319 36.3777 28.9127 35.4582 28.7936 34.5506C28.7122 33.8277 28.6287 33.1028 28.5453 32.3799C29.1391 33.1247 29.7528 33.8694 30.3466 34.6142C32.7417 37.3608 34.2709 40.8998 37.3591 42.9911C38.9877 44.0556 41.4463 44.983 43.0689 43.426C43.5157 43.0368 43.7838 42.4549 43.8752 41.875C44.0956 39.0112 42.0878 36.5485 39.9648 34.8624C37.0394 32.8367 34.2491 30.6164 31.4627 28.408C32.4994 28.5271 33.5302 28.6622 34.5649 28.7793C35.4744 28.8429 36.388 28.9918 37.2976 29.1527C37.5637 29.1904 37.8378 29.2361 38.1039 29.2758C39.1982 29.4784 40.2964 29.6413 41.3927 29.7723C41.4562 29.7843 41.5158 29.824 41.5794 29.8359C41.6409 29.8418 41.7045 29.8279 41.7661 29.8359C42.4075 29.9014 43.045 29.9749 43.6885 29.959C44.2902 29.9451 44.886 29.8895 45.4878 29.7723C45.5672 29.7564 45.6566 29.7306 45.738 29.7108C46.1452 29.6194 46.596 29.4903 46.9773 29.3394C47.3824 29.1765 47.7339 28.9541 48.0954 28.7178C48.1729 28.6681 48.2682 28.6463 48.3436 28.5927C48.4489 28.5172 48.5561 28.4298 48.6535 28.3464C48.7547 28.263 48.8679 28.1875 48.9633 28.0962C49.0169 28.0425 49.0407 27.9671 49.0884 27.9115C49.1698 27.8261 49.2592 27.7546 49.3366 27.6632C49.3744 27.6116 49.3644 27.5321 49.3982 27.4765C49.5194 27.2779 49.6365 27.0813 49.71 26.8569C49.716 26.8351 49.704 26.8132 49.71 26.7934C49.7835 26.5471 49.8272 26.2691 49.8331 25.987C49.853 25.711 49.7835 25.4469 49.71 25.1807C49.6345 24.9325 49.5293 24.712 49.3982 24.4976C49.3644 24.4419 49.3744 24.3625 49.3366 24.3109C49.2592 24.2195 49.1698 24.148 49.0884 24.0626C48.9434 23.9157 48.8104 23.7568 48.6535 23.6277C48.6118 23.5919 48.574 23.5403 48.5303 23.5046C48.4707 23.4589 48.4052 23.4231 48.3436 23.3814C48.147 23.2364 47.9385 23.1272 47.724 23.0081C47.7061 22.9981 47.6783 23.016 47.6605 23.0081C47.5353 22.9405 47.4182 22.881 47.2891 22.8214C47.1779 22.7717 47.0905 22.6804 46.9773 22.6347C46.9157 22.6109 46.8542 22.597 46.7926 22.5731C46.3835 22.4242 45.9227 22.2852 45.4878 22.2017C44.886 22.0846 44.2902 22.029 43.6885 22.0151C43.045 22 42.4075 22.0727 41.7661 22.1382C41.7045 22.1461 41.6409 22.1322 41.5794 22.1382C41.5158 22.1501 41.4562 22.1898 41.3927 22.2017C40.2964 22.3328 39.1982 22.4957 38.1039 22.6982C37.8358 22.7479 37.5637 22.7757 37.2976 22.8214C35.3632 23.0954 33.4031 23.3437 31.4627 23.5661C34.2491 21.3571 37.0394 19.137 39.9648 17.1121C42.0878 15.4252 44.0956 12.9639 43.8752 10.0991C43.7838 9.51982 43.5157 8.93773 43.0689 8.54768C41.4463 6.99027 38.9877 7.91932 37.3591 8.98202C34.2709 11.0737 32.7417 14.6141 30.3466 17.3603C29.7528 18.1054 29.1391 18.8496 28.5453 19.5945C28.6287 18.8707 28.7122 18.1468 28.7936 17.4225C28.9127 16.5149 29.0319 15.5962 29.1669 14.6917C29.4053 13.3303 29.6217 11.9598 29.7866 10.5956C29.8025 10.4707 29.8362 10.3482 29.8501 10.2233C29.9157 9.58119 29.9891 8.94289 29.9733 8.29943C29.9594 7.69768 29.9037 7.10288 29.7866 6.49953C29.7747 6.4332 29.7389 6.37938 29.725 6.31345C29.6376 5.93392 29.5622 5.52302 29.4152 5.13417C29.3556 4.97648 29.2365 4.85216 29.1669 4.69963C29.0359 4.41444 28.9008 4.15249 28.732 3.89292C28.6426 3.75271 28.587 3.59121 28.4838 3.45849C28.448 3.41414 28.3964 3.3771 28.3606 3.33436C28.2315 3.17765 28.0727 3.04407 27.9257 2.89993C27.8403 2.81757 27.7688 2.72957 27.6775 2.65168C27.6258 2.61375 27.5464 2.62374 27.4908 2.58962C27.2922 2.46907 27.0956 2.3517 26.8711 2.27931C26.8493 2.27329 26.8274 2.28485 26.8076 2.27931C26.5613 2.20569 26.2833 2.16097 26.0013 2.15518Z" fill="#E74C3C"/>
<path d="M34.6666 26.0002C34.6666 28.2987 33.7535 30.5031 32.1282 32.1284C30.5029 33.7537 28.2985 34.6668 25.9999 34.6668C23.7014 34.6668 21.497 33.7537 19.8717 32.1284C18.2463 30.5031 17.3333 28.2987 17.3333 26.0002C17.3333 23.7016 18.2463 21.4972 19.8717 19.8719C21.497 18.2466 23.7014 17.3335 25.9999 17.3335C28.2985 17.3335 30.5029 18.2466 32.1282 19.8719C33.7535 21.4972 34.6666 23.7016 34.6666 26.0002Z" fill="#C0392B"/>
<path d="M30.3332 26C30.3332 27.1492 29.8766 28.2514 29.064 29.0641C28.2513 29.8767 27.1491 30.3333 25.9998 30.3333C24.8506 30.3333 23.7484 29.8767 22.9357 29.0641C22.1231 28.2514 21.6665 27.1492 21.6665 26C21.6665 24.8507 22.1231 23.7485 22.9357 22.9358C23.7484 22.1232 24.8506 21.6666 25.9998 21.6666C27.1491 21.6666 28.2513 22.1232 29.064 22.9358C29.8766 23.7485 30.3332 24.8507 30.3332 26Z" fill="#E67E22"/>
</svg>
