<svg width="42" height="52" viewBox="0 0 42 52" fill="none" xmlns="http://www.w3.org/2000/svg">
<g clip-path="url(#clip0_93_834)">
<path fill-rule="evenodd" clip-rule="evenodd" d="M2.2676 5.9969C3.27634 8.35571 4.75834 10.3122 5.78997 12.6558C5.91149 12.9319 6.73994 13.7591 6.69019 14.0708C6.6317 14.4391 6.12698 14.5286 5.82853 14.6882C4.89304 15.1883 3.5299 15.8433 2.80202 15.2997C2.72492 15.2423 2.1996 14.7627 2.13127 15.1921C2.07968 15.5166 2.71682 16.3334 2.83591 16.5733C3.4774 17.8659 4.3896 19.6324 5.48649 20.3755C6.05506 20.7608 6.68391 20.9759 7.26531 21.3207C7.32167 21.3542 7.70905 21.7194 7.67391 21.7835C7.53863 22.0314 7.10576 22.1511 6.92559 22.1928C6.56261 22.2767 3.46682 23.18 3.96043 24.226C5.01742 26.4666 11.155 24.3835 11.1114 27.2086C11.0583 30.6411 10.5063 29.5846 15.8572 28.7032C16.3573 28.6208 14.1476 30.019 13.7599 30.2662C10.8969 32.0915 8.42182 30.2601 5.72762 30.4826C4.90482 30.5507 4.11363 30.779 3.31733 30.9795C3.249 30.9968 2.68272 31.1801 2.66665 31.2814C2.55335 31.9924 4.16805 33.0098 4.52969 33.2125C6.53644 34.3382 8.84175 35.1095 10.9575 36.0078C11.6462 36.3003 12.2102 36.6709 12.8346 37.0939C12.8988 37.1377 13.5033 37.249 13.4221 37.4425C13.2653 37.816 12.6353 38.1268 12.3654 38.2745C11.5533 38.7186 10.7001 39.3454 9.87603 39.5225C9.75497 39.5485 8.47223 39.7579 8.4594 39.838C8.34194 40.5765 10.0936 41.623 10.4366 41.8093C11.2221 42.2363 11.9081 42.8126 12.8349 42.902C13.0263 42.9207 13.7536 42.4897 13.8444 42.6202C13.9006 42.7006 13.6353 43.1395 14.5134 42.962C15.4266 42.7774 16.3017 42.5362 17.2111 42.248C17.4403 42.1753 17.8487 41.6579 18.0456 41.7273C18.1283 41.7563 17.4758 42.5818 17.4128 42.6731C16.7556 43.6291 16.0323 44.5168 15.4333 45.5171C15.3198 45.7066 15.0502 46.1483 15.3827 46.2654C15.6881 46.3733 16.5271 45.2159 16.7868 44.9807C17.5708 44.2709 18.4443 43.7203 19.2264 43.0124C19.4556 42.8048 20.2795 42.2876 20.5727 42.2633C20.7143 42.2515 20.9394 42.8423 21.031 42.9205C21.4234 43.2549 22.066 43.4267 22.5318 43.5909C23.7664 44.0257 26.224 43.6107 24.6073 45.7029C24.1559 46.2873 24.1801 46.2564 23.6654 46.8233C23.333 47.1894 23.04 47.5012 23.3617 47.3812C24.8651 46.8203 26.9593 46.0629 28.4687 45.2248C29.295 44.7657 30.6125 43.008 30.9424 42.8549C31.3392 42.6711 31.9151 43.5429 32.162 43.6893C32.6059 43.9529 33.612 43.27 33.9678 42.6964C34.6003 41.6759 33.5527 39.2811 33.7663 38.1971C34.5113 34.4161 35.9389 31.4733 36.1429 27.6936C36.1915 26.7896 36.3593 25.5843 36.1907 24.7855C36.0592 24.1627 33.8968 27.7409 33.4937 28.1422C33.0061 28.6275 32.55 28.4191 32.5479 27.814C32.5452 27.0177 33.1836 25.5645 33.4859 24.7545C34.1777 22.9003 34.9519 20.9023 34.4038 19.2921C34.1971 18.6849 32.4734 20.7757 32.1294 21.1545C31.9181 21.387 31.707 21.6197 31.4958 21.8522C31.3658 21.9954 30.7898 22.842 30.8199 22.6522C31.0598 21.1432 31.5819 19.3532 31.7406 17.8504C31.7543 17.7203 32.2196 16.3814 32.0014 16.3994C31.5399 16.4375 29.9335 18.7129 29.6794 19.1231C29.5041 19.4053 29.359 19.7246 29.1441 19.9614C29.0465 20.0688 28.7542 20.3905 28.8518 20.2834C29.2486 19.8463 29.6037 18.8331 29.7747 18.2712C30.3505 16.3771 30.5885 14.301 30.8296 12.4015C30.8605 12.1592 30.9328 10.8335 30.4501 10.8733C30.3298 10.8831 30.2752 11.3303 30.1785 11.4368C29.4298 12.2615 28.7206 12.8162 28.0108 13.6888C27.918 13.8029 26.8731 15.0484 26.6614 15.066C26.3943 15.088 26.339 14.2 26.3487 14.0208C26.4381 12.3644 24.1706 20.2785 24.1658 18.6455C24.1645 18.1457 25.1501 9.97548 24.8138 10.7774C24.0476 12.6027 23.5993 14.1135 22.9016 15.7659C22.7218 16.1924 22.5251 16.6283 22.3021 17.0816C21.9054 17.8879 21.7654 18.6459 21.3977 19.3199C21.1511 19.7717 21.0788 18.9543 21.0395 18.4955C20.9417 17.3528 21.1529 16.4452 20.7724 15.4898C20.7355 15.3972 20.3303 14.7164 20.1947 14.7275C19.8451 14.7565 18.6632 18.6424 18.6465 18.4948C18.5032 17.2295 18.9869 15.0731 19.1968 13.7529C19.4902 11.9086 19.1674 10.8061 18.9273 9.18685C18.893 8.95535 18.748 6.48391 18.2546 6.71287C17.2216 7.19223 17.0087 9.50262 16.5539 10.427C16.3235 10.8954 16.0556 11.3492 15.7757 11.782C15.6775 11.9338 15.5001 12.2514 15.5001 12.2514C15.5001 12.2514 15.7143 9.67669 15.7695 9.06819C15.9541 7.0346 16.0948 7.05978 15.8681 5.52931C15.8351 5.30739 16.0371 4.4133 15.7382 4.43811C15.5974 4.44965 15.0749 5.16849 14.9584 5.29672C14.1358 6.20298 13.7121 7.49467 13.1431 8.62369C12.9506 9.00555 12.7425 9.37594 12.5599 9.76382C12.5529 9.77911 12.4011 10.1539 12.3816 10.126C12.121 9.75195 12.4417 8.29024 12.44 7.73855C12.4345 5.82499 11.9313 4.36388 11.5617 2.64811C11.4388 2.07678 11.1785 0.636286 10.6265 0.441791C10.3561 0.346522 9.95342 1.44654 9.91317 1.64245C9.56952 3.31304 9.24264 5.02283 9.11298 6.67291C9.10237 6.80647 8.80811 8.79066 8.77816 8.77295C8.34466 8.51594 5.63393 5.57019 4.75612 4.50076C4.21343 3.83922 2.70927 3.22893 1.74268 3.30853C1.74268 3.30853 1.86156 5.04748 2.2676 5.9969Z" fill="#F1A825"/>
<path fill-rule="evenodd" clip-rule="evenodd" d="M3.97696 3.91878C4.51444 4.40147 6.98366 6.58839 7.64088 7.16793C7.74865 7.26452 7.76329 7.28442 7.81651 7.34385C8.03735 7.59093 8.21162 7.87556 8.43513 8.11974L8.44445 8.13002C8.74113 6.03678 8.96331 3.96674 9.39437 1.87549C9.61787 0.792961 10.6037 -1.39291 11.3474 1.45486C11.8663 3.44083 12.8774 4.72194 12.8747 6.71911C12.8681 7.33186 12.5408 8.76662 12.5421 9.38569C12.5421 9.38569 12.9612 8.16981 13.3284 7.36718C13.947 6.01544 15.6034 3.91509 15.6034 3.91509C15.8615 3.85908 16.1794 4.78348 16.23 5.049C16.242 5.11436 15.7471 11.6725 15.7471 11.6725C15.8894 11.443 16.1329 10.5647 16.2606 10.3268C16.9431 9.04809 16.8965 7.95805 17.889 6.81043C17.9223 6.77169 18.2775 6.46531 18.332 6.43553C18.8522 6.15116 19.0212 7.43952 19.0771 8.48752C19.1795 10.3731 19.7955 12.1827 19.403 14.1683C19.1476 15.4625 18.63 17.6276 18.63 17.6276C19.1462 16.7446 19.1556 15.5812 19.8553 14.8479C19.8899 14.8115 20.1959 14.4375 20.2119 14.4196C20.3103 14.3094 20.3396 14.4011 20.478 14.5934C21.2895 15.7226 20.8784 16.8626 21.3015 18.3063C21.3707 18.5418 21.3161 18.8769 21.3427 19.1463C21.7139 18.4035 21.6195 17.8824 21.9986 17.0861C22.6213 15.7715 23.0949 14.344 23.627 13.0271C23.9769 12.1622 24.3894 11.4163 24.7539 10.5305C24.7765 10.4799 24.7792 10.4772 24.7925 10.4561C24.9002 10.3011 25.1823 10.3702 25.1676 10.742C25.1277 11.7775 24.9428 12.8079 24.8018 13.8415C24.6009 15.317 24.3801 16.7932 24.1938 18.2611C24.8723 16.8307 25.2728 15.2854 26.0484 13.9057C26.1721 13.6859 26.4515 13.3559 26.671 13.71C26.7655 13.8618 26.6604 14.7113 26.848 14.727C27.0355 14.7427 27.5158 13.9244 27.7114 13.6876C28.1784 13.1224 28.6653 12.5716 29.1562 12.025C29.55 11.5872 29.8853 11.0877 30.3123 10.6987C30.7287 10.3204 31.3061 10.9925 31.1119 12.5447C30.8897 14.3195 30.5292 16.067 30.0489 17.7928C30.0489 17.7928 31.0587 16.5445 31.378 16.3283C31.6281 16.1586 32.0272 16.1505 32.1616 16.4659C32.3625 16.9395 32.1629 17.548 32.1057 18.0763C31.9966 19.0449 30.9762 22.4151 30.9762 22.4151C31.6654 21.6005 32.7124 19.6421 33.504 19.1813C33.8752 18.9654 34.5723 18.5145 34.8397 19.2793C35.4437 21.0291 33.351 26.2486 32.8188 28.0982C33.0357 28.2857 33.1434 28.3666 33.6729 27.5595C34.4685 26.3465 35.7803 24.0283 36.2167 24.5072C36.7914 25.1371 36.5759 25.9198 36.5187 26.7162C36.3923 28.4804 36.375 29.4578 35.9692 31.1746C35.3931 33.6095 34.7013 36.1092 34.2038 38.5568C33.9975 39.6097 34.8849 40.8633 34.7266 41.9814C35.5608 43.0709 36.4176 44.1473 37.3076 45.2023C38.5276 46.6471 40.0722 47.8049 41.3041 49.2458C41.3041 49.2458 41.2988 49.239 41.2882 49.2262C41.8855 49.8603 41.3015 50.7541 40.474 51.6864C39.5294 52.7509 37.2158 48.1045 35.5462 46.2804C34.9448 45.4599 34.1027 44.1745 33.5266 43.3348C33.2592 43.5799 33.0211 43.786 32.6725 43.9248C32.1603 44.1285 31.7013 43.6411 31.2902 43.1279C31.2902 43.1279 29.6538 44.8107 29.1349 45.1911C28.0892 45.9576 27.134 46.3257 25.942 46.8068C24.9455 47.2092 24.6448 47.2702 23.6337 47.6368C23.6337 47.6368 23.0576 48.2642 22.8301 47.6587C22.7357 47.409 23.655 46.511 24.1153 45.9607C24.4333 45.5801 24.6475 44.8865 24.7273 44.4239C24.7273 44.4239 23.1308 43.9464 22.9472 43.8954C22.137 43.6704 20.5857 43.2992 20.1919 42.5585C19.7875 42.9083 19.4123 43.287 18.9866 43.6164C18.1192 44.2874 17.8118 44.2721 17.0109 45.0539C16.4003 45.6474 15.5249 46.9519 14.9754 46.4675C14.5656 46.1077 16.3657 43.9278 16.5865 43.5543C16.9324 42.9706 16.4322 43.0667 16.4296 42.9998C16.4296 42.9998 15.9586 43.1192 15.6007 43.209C15.4304 43.2519 15.2588 43.2932 15.0858 43.3323C14.9714 43.3585 14.8557 43.3838 14.7399 43.4082C14.2184 43.5182 13.6144 43.715 13.2858 43.221C12.9332 43.3641 12.5594 43.4364 12.1576 43.3376C11.3088 43.129 10.5704 42.5845 9.83738 42.1488C9.14158 41.7319 8.42583 41.2693 8.00941 40.5943C7.81783 40.2833 7.65951 39.8298 7.97348 39.5682C8.11717 39.4477 8.3194 39.4191 8.51097 39.3786C9.18416 39.2356 9.85334 39.162 10.5146 38.8169C11.088 38.5182 11.6294 38.1782 12.2042 37.8637C12.3838 37.7639 13.0756 37.3827 13.049 37.3739C13.033 37.3685 11.1824 36.6806 10.3815 36.3396C8.30741 35.4572 6.17211 34.7202 4.21376 33.6245C3.4368 33.1902 2.64255 32.6627 2.23678 31.9444C2.04121 31.5994 1.17778 31.4388 1.66338 31.2171C2.21683 30.9648 3.62705 30.5484 4.23372 30.4172C5.68386 30.1039 7.1686 30.2991 8.76375 30.6125C10.3656 30.9239 12.0459 30.9214 13.4481 30.0331C13.516 29.99 13.5838 29.9468 13.6517 29.9035C13.9616 29.7059 14.2703 29.5062 14.575 29.3014L14.5869 29.2936C13.5439 29.4947 12.5142 29.8589 11.4778 29.9604C11.1851 29.989 10.8631 29.9423 10.6862 29.6877C10.4414 29.3375 10.5092 28.8838 10.5212 28.4761C10.5398 27.803 10.6968 27.0668 10.3602 26.6111C9.92121 26.0143 9.08305 25.9595 8.43115 25.8758C8.23824 25.851 8.04401 25.8298 7.84977 25.8103C6.27856 25.6531 4.4253 25.6819 3.68825 24.3691C3.55521 24.1306 3.14677 24.2343 3.24655 23.9706C3.51795 23.2511 4.69803 22.5827 5.36323 22.3363C5.91668 22.1312 6.55793 22.0521 6.99031 21.8272L6.82934 21.6661C6.14817 21.2641 5.37121 21.0117 4.76321 20.5027C3.62838 19.5544 2.95653 18.1174 2.2727 16.7846C1.92945 16.1498 1.17511 15.4435 1.68732 14.9037C1.71526 14.8729 1.74851 14.8455 1.78443 14.8223C2.21549 14.5424 2.76095 14.9346 3.04832 15.0501C3.90776 15.3958 5.00136 14.6493 5.78364 14.3263C5.92733 14.2656 6.09229 14.1293 6.09229 14.1293C5.92599 13.6322 5.12775 11.8001 4.88828 11.2632C3.4275 8.90985 1.21503 3.60608 1.04207 3.53268C0.428756 3.27229 0.599051 1.94717 1.16181 2.17448C1.16181 2.17448 3.19335 3.21352 3.97696 3.91878ZM13.4188 37.9106C13.1341 38.2905 12.6485 38.514 12.2241 38.7533C11.2742 39.2937 10.3842 39.8636 9.22806 40.0777C9.03116 40.1145 8.7398 40.1746 8.7398 40.1746C9.32252 41.048 10.452 41.5142 11.374 42.048C11.7585 42.2685 12.1643 42.4655 12.6113 42.5202C12.6113 42.5202 12.9452 42.3835 13.1874 42.2963C13.5027 42.1826 13.9683 42.1445 14.0814 42.609C14.1027 42.606 14.1226 42.6025 14.1439 42.599C15.0539 42.4347 15.9493 42.1674 16.8366 41.885C17.1679 41.6791 17.458 41.1949 17.9702 41.3529C18.5968 41.5465 18.3094 42.0322 18.0992 42.3437C17.9981 42.4942 17.8903 42.6406 17.7812 42.786C17.2637 43.4769 16.7582 44.1931 16.2579 44.9157C16.2579 44.9157 18.0034 43.6762 18.7498 42.9976C19.3511 42.4501 19.9525 41.4984 20.6656 41.8836C20.929 42.0251 21.0647 42.3368 21.2243 42.6189C21.2243 42.6189 21.521 42.8056 21.7552 42.8961C23.2918 43.4923 25.4444 43.1401 25.5162 44.6475C25.5588 45.5427 24.7965 46.2877 24.3415 46.818L24.569 46.7288C26.4182 46.0747 27.9895 45.4027 29.546 44.0912C30.15 43.5819 30.3815 42.562 31.3554 42.602C31.7239 42.617 32.0286 42.8809 32.2694 43.1962C32.2694 43.1962 32.7177 43.0025 33.0344 42.6854C32.4716 41.8484 31.9208 41.0062 31.3753 40.1631C29.24 39.3999 24.9508 38.297 24.8723 38.2877C23.7654 38.1552 22.1663 38.1113 21.1365 38.0989C20.4128 38.0901 19.7329 38.0969 19.1343 38.0996C19.0518 38.0999 18.9706 38.1002 18.8921 38.1005M32.5141 39.0122C32.8321 39.4488 33.1527 39.8846 33.4747 40.3189C33.4414 39.6533 33.3882 38.9781 33.5093 38.3545C34.2131 34.724 35.6566 31.1701 35.8814 27.4531C35.9266 26.7083 36.0584 25.9591 35.9825 25.2298C35.1524 26.1876 34.5976 27.3623 33.7408 28.3184C33.4667 28.6246 32.9519 28.9615 32.4955 28.5806C31.9993 28.1671 32.2574 27.2855 32.4835 26.603C32.868 25.4453 33.4481 24.3551 33.7701 23.1764C34.092 22.0007 34.2889 20.7636 34.1 19.5761C33.4415 20.1727 32.888 20.8713 32.304 21.5291C32.0219 21.8431 31.6614 22.1823 31.5071 22.3802C31.2782 22.6764 30.9589 23.1204 30.6143 22.8047C30.4627 24.0005 29.6112 25.2228 29.9917 26.2617C30.609 28.0012 30.9389 29.851 30.8857 31.5578C30.8565 32.5097 30.5225 33.4155 30.7128 34.379C31.0347 36.0105 31.9407 37.5278 32.5141 39.0122ZM3.57384 31.2068C3.52328 31.2199 3.20532 31.3432 3.15609 31.356C2.99644 31.3992 3.16009 31.6604 3.16009 31.6604C3.41286 32.4012 4.01287 32.7362 4.7885 33.1467C6.77214 34.1967 8.95399 34.8874 10.9802 35.7765C11.6188 36.0569 12.2122 36.436 12.7949 36.8265C13.2126 36.9617 13.7475 37.2036 13.5545 37.6788C13.5545 37.6788 17.3781 37.4852 19.2873 37.3278L19.3378 37.3235C19.5613 37.305 19.7848 37.2852 20.0083 37.2623C20.0456 37.2584 20.0828 37.2545 20.1201 37.2505L20.1627 37.2458C20.2066 37.2414 20.2066 37.2414 20.2518 37.2374C20.635 37.2047 21.0195 37.1964 21.4026 37.1966C21.4279 37.1966 21.4532 37.1968 21.4798 37.1968C22.9898 37.2159 24.5064 37.4357 26.0138 37.809C27.6688 38.2189 29.3119 38.814 30.9217 39.5318L30.927 39.5342L30.9882 39.5617C29.4835 37.2176 28.0307 34.8761 26.5766 32.6329C25.9805 32.482 25.2488 32.73 24.7393 32.9818C22.9459 33.868 21.3201 35.4323 19.1077 34.9813C17.9449 34.7364 15.3985 33.8027 15.3985 33.8027C14.6455 33.6315 11.8676 33.1643 11.3407 33.0361M30.5212 21.7979C30.5891 21.5593 30.6755 21.3081 30.7301 21.0673C30.9696 20.001 31.2516 18.9391 31.3727 17.8513C31.3993 17.6429 31.4365 17.4339 31.4591 17.2231C30.6955 18.0074 30.0516 18.8997 29.4981 19.8443C29.3212 20.1427 29.087 20.4021 28.8529 20.6567C28.6067 20.9233 28.0427 20.6213 28.4325 20.1128C28.9713 19.3982 29.1855 18.4681 29.4316 17.6201C29.9079 15.979 30.2671 14.3147 30.5079 12.6126C30.5558 12.275 30.6077 11.9281 30.6064 11.5953C29.578 13.3899 26.989 18.3828 26.989 18.3828C26.3836 19.5949 25.6 20.4646 25.141 22.0255C24.7193 23.4459 24.3109 24.8319 24.5344 26.449C24.6102 26.9924 24.549 27.8487 24.4546 27.7936C24.9135 28.4463 28.6959 33.7298 28.6959 33.7298C29.2573 34.4975 29.8134 35.2686 30.3682 36.0403C29.8919 35.025 29.57 33.981 29.7416 32.9291C30.0569 30.9969 29.7363 28.9733 29.4609 27.4861C29.3717 27.0046 29.2028 26.5141 29.1762 26.0833C29.1097 24.9501 29.8799 23.988 30.2259 22.8509M4.56499 24.3952C4.83639 24.6061 5.22886 24.7933 5.63197 24.8896C6.98766 25.2123 8.42449 25.0708 9.76687 25.5181C10.5079 25.7652 11.1824 26.3664 11.1811 27.2769C11.1744 27.946 11.0082 28.6569 11.1784 29.2769C11.237 29.4867 11.696 29.306 12.1723 29.1945C13.2752 28.9341 14.3847 28.6861 15.5062 28.5024C15.5062 28.5024 16.1076 28.4425 15.9945 28.897C15.932 29.1471 15.6579 29.2966 15.4198 29.4687C14.2091 30.3442 12.9425 31.2286 11.5124 31.4211C9.58194 31.681 7.65552 30.7758 5.74639 30.8505C5.20358 30.8717 4.67143 30.9758 4.14193 31.1039C6.26259 31.2796 6.88388 31.7433 8.88481 32.1236L11.1838 32.5469C12.0272 32.7149 12.1869 32.5527 13.0277 32.7316C13.0277 32.7316 13.5612 32.8482 13.9656 32.9388C14.4832 33.0543 14.9994 33.1807 15.5169 33.3027L15.614 33.3256C16.0384 33.4299 16.4641 33.5345 16.8885 33.6397C17.7121 33.8439 18.513 34.0895 19.3658 34.2723C21.7818 34.7744 24.2523 31.8681 26.2852 32.1839C25.0865 30.3437 23.8825 28.5057 22.6758 26.699C20.4926 25.9178 18.324 25.1568 15.9519 24.8246C13.8339 24.5279 11.6215 24.5827 10.0502 24.5857M30.0835 11.8259C29.7881 12.1307 28.5269 13.4443 27.8897 14.3076C27.7367 14.5159 26.4781 15.6695 26.3224 15.3232C26.2346 15.1284 26.2253 14.9043 26.216 14.6859V14.6817C25.624 15.9901 25.161 17.3637 24.5118 18.6378C24.3521 18.9495 24.1313 19.4165 23.8173 19.1564C23.5991 18.9753 23.7042 18.6066 23.7561 18.2202C24.0421 16.0761 24.4027 13.9397 24.6781 11.7936C24.6781 11.7936 23.2253 15.599 22.298 17.4849C21.9201 18.2561 21.9175 19.2013 21.4505 19.8828C21.3401 20.0439 21.0687 20.0205 20.9689 19.7115C20.5804 18.4952 20.921 17.0738 20.4141 15.7296C20.3383 15.5307 20.289 15.3142 20.16 15.1467C19.9618 15.313 19.8553 15.6064 19.7329 15.8741C19.4097 16.5849 19.3431 17.4704 18.8708 18.269C18.6899 18.575 18.5715 18.9161 18.3267 18.7347C18.2442 18.6738 18.2589 18.531 18.2562 18.3988C18.2136 16.7722 18.7272 15.1582 18.9161 13.4748C19.081 12.0209 18.948 10.8749 18.7258 9.43656C18.6167 8.65566 18.8256 7.88663 18.485 7.12089C18.3879 6.90175 18.2868 7.36638 18.1099 7.50962C16.9537 8.44127 17.0775 10.4543 16.4163 11.6903C16.2247 12.047 15.4091 14.0321 15.0965 13.8302C14.9395 13.7292 15.0459 12.5555 15.2189 11.9274C15.7351 10.0581 15.8029 5.57373 15.5382 5.18539C15.5382 5.18539 15.1497 5.79564 14.8756 6.12138C13.9151 7.28192 12.0911 11.9088 11.853 11.4482C11.7106 11.1723 11.8277 9.65333 11.8503 9.32112C11.9062 8.52389 12.2028 6.64914 12.131 5.86218C11.9886 4.27483 11.3288 3.81151 10.9776 2.28992C10.8352 1.68072 10.6223 0.938044 10.3057 0.757777C10.3057 0.757777 9.84935 1.6122 9.74957 2.10912C9.44092 3.66472 9.55402 5.07878 9.41432 6.68643C9.38106 7.03128 9.20411 8.10458 9.06841 8.90406C9.42762 9.28897 9.77219 9.68561 10.1008 10.0945C11.6161 11.9714 13.7954 13.228 15.3998 15.059C15.4757 15.145 15.5488 15.232 15.6233 15.3199C15.9878 15.7572 16.3098 16.2307 16.6424 16.6972C19.0278 20.0464 24.0448 27.212 24.0448 27.212L24.2803 27.5475C24.275 27.5203 24.3348 27.2781 24.3361 27.2884C24.0408 25.8411 23.8506 24.431 24.2124 22.8102C24.5104 21.4769 25.0346 20.7242 25.789 19.4142C26.3863 18.3784 26.5726 17.8634 27.1606 16.8608C27.3109 16.6036 27.9402 14.9724 28.2595 14.4756C28.8396 13.5719 29.4449 12.6934 30.0835 11.8259ZM2.2421 15.5075C2.44831 15.9853 2.79555 16.3988 3.03901 16.8807C3.70289 18.1881 4.39336 19.1324 5.61068 19.8604C6.11491 20.1619 6.66303 20.8319 7.17258 21.1323C7.17258 21.1323 8.62406 22.121 6.78011 22.5697C5.93664 22.7749 5.04793 22.987 4.40268 23.5448C4.35212 23.5888 4.30289 23.6367 4.26298 23.6902C4.1326 23.8604 4.08205 24.0446 4.29624 24.2507L4.54902 24.1739C6.53931 24.054 8.50564 23.9744 10.4973 23.8088C10.7727 23.786 11.366 23.7267 11.4099 23.7226C11.8197 23.6878 12.2281 23.6807 12.6379 23.6821C15.8322 23.7225 22.2394 26.0885 22.2793 26.107C21.9441 25.6083 20.4567 23.4361 20.0749 22.8882L20.0389 22.8381C19.2367 21.7099 18.4238 20.5918 17.595 19.4826L17.5418 19.4119C17.4739 19.3228 17.4061 19.2333 17.3382 19.1437C16.7196 18.8539 16.0903 18.4615 15.3612 18.1505C13.5891 17.394 11.7266 16.9217 9.63649 16.8863C8.7398 16.871 7.90697 16.8822 7.08079 16.7072C5.90471 16.4587 4.76056 16.0673 3.60177 15.7778C3.2705 15.791 2.94854 15.7329 2.64787 15.5681C2.60529 15.5602 2.33523 15.5157 2.2421 15.5075ZM16.7395 18.3477C15.767 17.0593 14.7692 15.7839 13.5133 14.7759C11.8982 13.48 9.24137 10.053 7.81784 8.52086C6.72291 7.34991 2.79156 3.63546 2.04387 3.8716C2.04387 3.8716 3.02704 6.53871 4.54902 9.44249C5.68519 11.6086 7.56904 14.0962 7.15661 14.6854C6.96637 14.9578 5.83154 14.9961 5.52422 15.1527C5.21157 15.3099 4.88162 15.4642 4.54636 15.5803C4.62086 15.5932 5.27542 15.7078 5.64394 15.7723C6.66436 15.9503 7.69676 16.2647 8.69324 16.1373C8.82894 16.1216 9.64315 16.1056 9.79216 16.1114C12.1403 16.2034 14.3847 17.0028 16.5826 18.2565C16.6344 18.2864 16.6876 18.3168 16.7395 18.3477Z" fill="#500000"/>
</g>
<defs>
<clipPath id="clip0_93_834">
<rect width="42" height="52" fill="white"/>
</clipPath>
</defs>
</svg>
