<svg width="125" height="80" viewBox="0 0 125 80" fill="none" xmlns="http://www.w3.org/2000/svg">
<path fill-rule="evenodd" clip-rule="evenodd" d="M46.2892 10.3204C43.8304 10.9701 41.8131 12.6631 40.6892 15.0201C40.1719 16.1056 40.0901 16.5647 40.0901 18.3888C40.0901 20.2911 40.1572 20.6332 40.7658 21.8355C41.4124 23.1128 41.4291 23.2174 41.155 24.2633C40.5737 26.4798 41.4192 29.1051 43.2478 30.7625L44.2568 31.6769V35.1885C44.2568 37.8851 44.3282 38.7583 44.5642 38.951C44.7856 39.1314 47.7336 39.1857 55.0935 39.1441L65.3153 39.0865V34.8835V30.6808L63.2883 29.1567C62.1734 28.3185 61.0662 27.4976 60.8277 27.3324C60.4009 27.0366 60.4007 27.0197 60.8225 26.2495C61.0583 25.8192 61.2685 25.4671 61.2899 25.4671C61.3113 25.4671 61.8421 25.807 62.4698 26.2223C63.5865 26.961 65.2376 27.4602 66.5651 27.4602H67.2297V32.0664C67.2297 36.7705 67.3045 37.2041 68.1164 37.2041C68.3068 37.2041 69.7813 35.9153 71.3935 34.3401L74.3243 31.476L75.2149 32.2436L76.1054 33.0109L73.0189 36.0515L69.9324 39.0922V46.4084C69.9324 53.8045 69.9795 54.256 70.7498 54.256C70.9018 54.256 71.1856 54.0995 71.3804 53.9081C71.6867 53.6067 71.7342 52.647 71.7342 46.7634V39.9665L74.9437 36.839L78.1532 33.7114L79.4228 33.594C81.6775 33.3854 83.3239 32.2821 84.3277 30.3068C85.4385 28.121 85.2649 26.189 83.7701 24.1078L83.0324 23.0805L83.589 22.2751C84.2635 21.2991 84.7867 19.8984 84.827 18.9617L84.8565 18.2699L85.0225 19.045C85.1496 19.638 85.1892 19.4299 85.1915 18.1592C85.1937 16.9671 85.146 16.6858 85.0225 17.1626L84.8507 17.827L84.8239 17.1157C84.7405 14.8892 82.6543 12.018 80.3356 10.9387C77.0716 9.41906 72.8678 10.4023 70.7198 13.1873L70.0282 14.084L69.0232 13.647C68.3847 13.3696 67.443 13.1955 66.4415 13.1703C64.93 13.1317 64.8264 13.0936 63.9313 12.2433C61.4982 9.93128 57.7978 9.54418 54.9723 11.3058L53.9484 11.9443L52.8559 11.2766C50.8183 10.0312 48.6041 9.70872 46.2892 10.3204ZM46.9926 11.9669C42.5214 12.8686 40.4016 18.0673 42.923 21.9467C43.5642 22.933 43.5746 22.9921 43.2455 23.7666C42.6728 25.1143 42.8041 26.9471 43.5669 28.2545C43.9284 28.8742 44.4595 29.5314 44.7471 29.715C45.2525 30.0375 45.4277 29.9334 49.8874 26.6592C52.4268 24.795 54.6674 23.2659 54.8662 23.2612C55.0653 23.2563 55.6734 23.5821 56.2176 23.9849C56.7619 24.3875 57.5813 24.993 58.0387 25.33L58.8703 25.943L59.3338 25.0495C59.8403 24.0728 59.9387 22.5437 59.5586 21.5507C59.1421 20.4625 57.8063 19.3165 56.6005 19.0126C55.9944 18.8598 55.4183 18.6302 55.3201 18.5024C55.2221 18.3744 55.0187 17.7063 54.8683 17.0176C54.1011 13.5095 50.5707 11.2454 46.9926 11.9669ZM57.309 12.2014C56.8694 12.3241 56.2293 12.6441 55.8867 12.9127L55.2635 13.4012L55.8225 14.3962C56.1302 14.9432 56.4919 15.8022 56.6268 16.3047C56.8266 17.0503 56.9896 17.2417 57.5124 17.3444C59.1851 17.6733 61.3279 20.154 61.5403 22.0073C61.6831 23.2537 62.5809 24.3616 63.966 25.0018C64.8926 25.4301 66.8556 25.72 67.0655 25.4594C67.1113 25.4027 67.4282 24.7826 67.7698 24.0813C68.1113 23.3799 68.7219 22.5577 69.1266 22.254L69.8624 21.7024L69.4232 20.429C69.0858 19.4509 69.007 18.7553 69.0838 17.4279C69.1966 15.4769 69.1883 15.4656 67.371 15.065C66.6457 14.9053 66.0047 14.9069 65.2626 15.0703L64.1966 15.3053L63.2065 14.1754C62.6619 13.554 61.8113 12.8423 61.316 12.5938C60.2604 12.0643 58.4403 11.886 57.309 12.2014ZM74.9246 12.3675C73.327 12.9278 71.8703 14.3466 71.2592 15.9375C70.6482 17.5282 70.7766 19.2283 71.6333 20.8919C72.3464 22.2769 72.2734 22.6748 71.2268 23.1046C69.0912 23.982 68.3957 26.6415 69.8556 28.3473C70.932 29.6052 72.3543 29.9794 73.9624 29.4285C74.6532 29.1915 74.7228 29.2247 75.7532 30.2815C77.5275 32.101 79.8743 32.3229 81.666 30.8407C83.7392 29.1255 83.6734 26.3235 81.5149 24.392C80.9667 23.9012 80.518 23.3948 80.518 23.2661C80.518 23.1376 80.871 22.6482 81.3025 22.1788C83.3867 19.9104 83.5955 16.6573 81.8041 14.3674C80.2207 12.3433 77.3622 11.5125 74.9246 12.3675ZM40.0532 18.3806C40.0532 19.2941 40.093 19.6679 40.1414 19.2111C40.1901 18.7544 40.1901 18.007 40.1414 17.5502C40.093 17.0935 40.0532 17.4671 40.0532 18.3806ZM50.4878 28.4769L46.0586 31.7012V34.5635V37.4256H48.7613H51.464V34.591C51.464 32.6816 51.5523 31.6696 51.7342 31.4906C51.9162 31.3117 52.9437 31.2249 54.8795 31.2249C57.4915 31.2249 57.7757 31.2641 57.9876 31.6532C58.1158 31.8888 58.2207 33.284 58.2207 34.7535V37.4256H60.9234H63.6261V34.5513V31.6771L59.5158 28.6498C57.2552 26.9847 55.2955 25.5391 55.1613 25.4374C55.0101 25.3229 53.2322 26.4792 50.4878 28.4769ZM69.0315 32.1687V33.978L70.2647 32.7804C70.943 32.1218 71.4552 31.5411 71.4032 31.4898C71.3509 31.4386 70.796 31.1633 70.1698 30.8781L69.0315 30.3595V32.1687ZM53.2658 34.9896V36.9827H54.8424H56.4189V34.9896V32.9965H54.8424H53.2658V34.9896ZM42.8088 41.3167C42.3448 41.7732 42.3617 42.1461 42.8669 42.5954C43.23 42.9185 44.0433 42.9619 49.7322 42.9619H56.1858L56.2462 48.419C56.3005 53.3366 56.3453 53.8999 56.7005 54.1203C56.9878 54.2983 57.2014 54.2983 57.4887 54.1201C57.8464 53.8984 57.8885 53.3027 57.943 47.6992C57.9975 42.0887 57.9678 41.497 57.6185 41.2457C57.3302 41.0382 55.4714 40.9688 50.1982 40.9688C44.1027 40.9688 43.1155 41.0153 42.8088 41.3167Z" fill="#606C38"/>
<path d="M6.04731 57.7689H4.30463C5.22805 61.9571 7.01296 64.6478 9.12163 66.5356C8.88796 66.9509 8.47692 67.1253 7.96454 67.1253C7.18751 67.1253 6.80744 66.9675 6.3401 66.591L5.72355 67.9585C6.1205 68.3488 7.23255 68.6505 7.96454 68.6505C9.00339 68.6505 9.95496 68.3488 10.8333 67.0948C12.7815 64.2879 13.9809 60.9772 14.8452 57.7689H13.0152C12.3846 60.2021 11.2725 63.3523 10.0591 65.3675C8.44877 63.4962 6.91161 61.5696 6.04731 57.7689ZM26.1909 64.7059C26.1909 66.3336 24.8283 67.2249 23.5107 67.2249C22.1931 67.2249 20.8193 66.4637 20.8193 64.7779C20.8193 63.081 22.165 62.317 23.5107 62.317C24.8142 62.317 26.1909 63.0367 26.1909 64.7059ZM27.6098 64.7059C27.6098 62.1149 25.6194 60.8055 23.4544 60.8055C21.5512 60.8055 19.7945 61.899 19.3694 63.8727H18.1109V61.0491H16.616V68.5066H18.1109V65.3841H19.3243C19.6481 67.5128 21.4471 68.7363 23.4375 68.7363C25.6194 68.7363 27.6098 67.2388 27.6098 64.7059ZM36.205 62.5329V61.0491H29.0907V62.5329H31.8412V68.5066H33.3502V62.5329H36.205ZM40.0394 65.5419C40.3463 65.4118 40.656 65.3675 40.991 65.3675C41.7371 65.3675 42.4859 65.5696 43.2742 65.5696C43.5839 65.5696 43.8767 65.528 44.1695 65.3841V68.5066H45.6616V61.0491H44.1695V63.8727C43.8598 64.0166 43.5389 64.0581 43.2179 64.0581C42.455 64.0581 41.5625 63.8422 40.9319 63.8422C40.625 63.8422 40.3181 63.9003 40.0394 64.0305V61.0491H38.5473V68.5066H40.0394V65.5419ZM55.8221 64.7197C55.8221 66.3336 54.3722 67.2249 52.9364 67.2249C51.4893 67.2249 50.0254 66.4637 50.0254 64.7779C50.0254 63.0948 51.4583 62.3308 52.9223 62.3308C54.3581 62.3308 55.8221 63.0505 55.8221 64.7197ZM57.4015 64.7059C57.4015 62.1149 55.2055 60.8055 52.9223 60.8055C50.6532 60.8055 48.4431 62.2173 48.4431 64.7502C48.4431 67.2692 50.6109 68.7363 52.9082 68.7363C55.2055 68.7363 57.4015 67.2388 57.4015 64.7059ZM61.6779 65.8298C62.3367 65.4837 62.6577 65.3979 64.0484 65.3979H65.1605V63.9142H64.0484C63.1701 63.9142 62.3367 63.9723 61.6779 64.346V62.5329H66.1571V61.0491H60.183V68.5066H66.4358V67.009H61.6779V65.8298ZM82.4662 61.0491H80.6222L77.3846 65.2678L74.1498 61.0491H72.3058L73.0518 62.245V68.5066H74.7072V64.1439L77.3846 67.6567L80.0648 64.1439V68.5066H81.7202V62.245L82.4662 61.0491ZM86.5203 65.8298C87.1791 65.4837 87.5028 65.3979 88.8936 65.3979H90.0056V63.9142H88.8936C88.0152 63.9142 87.1791 63.9723 86.5203 64.346V62.5329H90.9995V61.0491H85.0282V68.5066H91.2782V67.009H86.5203V65.8298ZM100.107 66.4332C99.5214 66.9509 98.6853 67.2388 97.897 67.2388C96.4471 67.2388 94.9972 66.4637 94.9972 64.7779C94.9972 63.0948 96.4161 62.3031 97.8801 62.3031C98.598 62.3031 99.2427 62.4471 99.8142 62.8346L100.825 61.683C99.9888 61.0657 98.9949 60.8055 97.8801 60.8055C95.6109 60.8055 93.4009 62.2173 93.4009 64.7502C93.4009 67.2692 95.5687 68.7363 97.866 68.7363C99.0231 68.7363 100.149 68.3765 100.985 67.6706L100.107 66.4332ZM109.564 62.5329V61.0491H102.449V62.5329H105.2V68.5066H106.709V62.5329H109.564ZM118.553 64.7197C118.553 66.3336 117.103 67.2249 115.667 67.2249C114.22 67.2249 112.756 66.4637 112.756 64.7779C112.756 63.0948 114.189 62.3308 115.653 62.3308C117.089 62.3308 118.553 63.0505 118.553 64.7197ZM120.132 64.7059C120.132 62.1149 117.936 60.8055 115.653 60.8055C113.384 60.8055 111.174 62.2173 111.174 64.7502C111.174 67.2692 113.342 68.7363 115.639 68.7363C117.936 68.7363 120.132 67.2388 120.132 64.7059Z" fill="#283618"/>
</svg>
