<svg width="14" height="14" viewBox="0 0 14 14" fill="none" xmlns="http://www.w3.org/2000/svg">
<path d="M1.24745 1.70467C1.15663 1.69957 1.06645 1.70073 0.978936 1.71233C0.804078 1.73551 0.640211 1.79984 0.503701 1.93546C0.373908 2.06405 0.324828 2.23752 0.317217 2.39046C0.309606 2.54339 0.334842 2.6904 0.366982 2.83944C0.431263 3.13751 0.529891 3.44774 0.562217 3.70952C0.592321 3.95305 0.532363 4.39822 0.452295 4.96569C0.372227 5.53316 0.280029 6.23097 0.280029 7.03506C0.280029 7.42372 0.342089 8.059 0.585732 8.71834C0.6476 8.88577 0.722219 9.05506 0.810498 9.22147C0.838684 9.58895 0.628689 10.06 0.526123 10.5728C0.503322 10.6863 0.401854 10.9571 0.341826 11.2373C0.311789 11.3774 0.290713 11.5248 0.304092 11.6791C0.31747 11.8335 0.372504 12.0047 0.503701 12.1347L0.504248 12.1352C0.778461 12.4057 1.16171 12.3915 1.52198 12.3348C1.88225 12.2782 2.26176 12.1586 2.59605 12.0647C3.42156 11.8325 4.964 12.0587 6.85073 12.0587H7.00003H7.14933C8.11241 12.0587 8.98049 11.9931 9.71472 11.9651C9.94308 11.9566 10.1582 11.9518 10.3584 11.9531C10.7767 11.9558 11.1307 11.9878 11.404 12.0647C11.7383 12.1586 12.1178 12.2787 12.4781 12.3354C12.8384 12.392 13.2215 12.4061 13.4958 12.1358C13.6927 11.9417 13.7063 11.6779 13.6834 11.4773C13.6605 11.2768 13.6019 11.0969 13.5767 10.9917C13.5386 10.832 13.4603 10.6767 13.3613 10.4776C13.3438 10.4425 13.3209 10.3985 13.3022 10.3617C13.3451 10.0685 13.4415 9.48207 13.5341 8.83811C13.6313 8.16225 13.72 7.46821 13.72 7.03506C13.72 6.23097 13.6278 5.53316 13.5478 4.96569C13.4677 4.39822 13.4077 3.95305 13.4378 3.70952C13.4702 3.44774 13.5688 3.13751 13.6331 2.83944C13.6652 2.6904 13.6905 2.54339 13.6828 2.39046C13.6752 2.23752 13.6262 2.06405 13.4964 1.93546C13.3598 1.79984 13.196 1.73551 13.0211 1.71233C12.8461 1.68913 12.6604 1.70696 12.4803 1.7353C12.1199 1.79199 11.7398 1.91169 11.4046 2.00546C10.5783 2.23674 9.03595 2.01147 7.14933 2.01147H7.00003H6.85073C6.40042 2.01147 5.33592 1.97668 4.26948 2.34671C3.7812 2.35403 2.99882 2.11843 2.5955 2.00546C2.26022 1.91169 1.88011 1.79199 1.51979 1.7353C1.42972 1.72113 1.33827 1.70977 1.24745 1.70467ZM1.23104 2.2685C1.29111 2.27061 1.3584 2.27703 1.43284 2.28874C1.73059 2.33558 2.09804 2.44776 2.44456 2.54467C2.65051 2.60236 2.98395 2.70551 3.34964 2.78803C2.95946 3.03672 2.59411 3.36112 2.29089 3.79428L2.74917 4.11585C3.87604 2.50603 6.0541 2.57147 6.85073 2.57147H7.00003H7.14933C8.98614 2.57147 10.4912 2.84259 11.5555 2.54467C11.902 2.44776 12.2695 2.33558 12.5672 2.28874C12.865 2.24189 13.0504 2.28113 13.1021 2.33249V2.33303H13.1026C13.1089 2.33926 13.12 2.35098 13.1234 2.41835C13.1267 2.48571 13.1131 2.59396 13.0857 2.72131C13.0307 2.97603 12.9241 3.30151 12.8822 3.64061C12.8342 4.02904 12.9138 4.48072 12.9932 5.04389C13.0727 5.60706 13.16 6.27367 13.16 7.03506C13.16 7.38564 13.0757 8.08991 12.9796 8.75827C12.9354 9.06563 12.9085 9.23009 12.8675 9.49436C12.8127 9.37717 12.7623 9.26339 12.7209 9.15858C12.6416 8.95787 12.6 8.78096 12.6 8.71506H12.04C12.04 8.92917 12.1099 9.13539 12.2003 9.3642C12.2907 9.59302 12.4075 9.83689 12.5262 10.073C12.6449 10.309 12.7654 10.5372 12.8598 10.727C12.9542 10.9168 13.0227 11.0829 13.0321 11.1219C13.066 11.2639 13.1131 11.4169 13.1272 11.5408C13.1414 11.6646 13.123 11.717 13.1032 11.7365C13.0496 11.7893 12.8626 11.8287 12.565 11.7819C12.2675 11.7351 11.9013 11.623 11.556 11.526C11.2038 11.427 10.8058 11.396 10.3622 11.3931C10.1497 11.3917 9.92701 11.3969 9.69394 11.4057H9.69339C8.94305 11.4343 8.08689 11.4987 7.14933 11.4987H7.00003H6.85073C5.01403 11.4987 3.5085 11.2261 2.44401 11.5255C2.09875 11.6225 1.73255 11.7346 1.43503 11.7814C1.13781 11.8281 0.9516 11.7891 0.897998 11.7365H0.897451C0.881629 11.7208 0.86767 11.697 0.861904 11.6305C0.856103 11.5635 0.865805 11.4637 0.889248 11.3543C0.936134 11.1355 1.03208 10.8975 1.07519 10.6822C1.11975 10.4594 1.22015 10.2007 1.29339 9.91655C1.49172 10.1352 1.72757 10.3323 2.00761 10.4924L2.28597 10.0062C1.68491 9.66253 1.32439 9.10092 1.11128 8.5242C0.898172 7.94749 0.840029 7.36096 0.840029 7.03506C0.840029 6.27367 0.927364 5.60706 1.00683 5.04389C1.08629 4.48072 1.16586 4.02904 1.11784 3.64061C1.07597 3.30151 0.969334 2.97603 0.914404 2.72131C0.886939 2.59396 0.873317 2.48571 0.87667 2.41835C0.880022 2.35098 0.891165 2.33926 0.897451 2.33303H0.897998V2.33249C0.936718 2.29397 1.05085 2.26218 1.23104 2.2685Z" fill="black"/>
</svg>
