<svg width="14" height="14" viewBox="0 0 14 14" fill="none" xmlns="http://www.w3.org/2000/svg">
<g clip-path="url(#clip0_209_1034)">
<path d="M13.3913 2.13048C13.0551 2.13048 12.7826 2.40302 12.7826 2.73918V3.34788H12.1739V2.43482C12.1739 1.59466 11.4923 0.913086 10.6522 0.913086C9.812 0.913086 9.13043 1.59466 9.13043 2.43482V2.73916H8.52173V2.43482C8.52173 1.59466 7.84016 0.913086 7 0.913086C6.15984 0.913086 5.47827 1.59466 5.47827 2.43482V2.73916H4.86957V2.43482C4.86957 1.59466 4.188 0.913086 3.34783 0.913086C2.50767 0.913086 1.8261 1.59466 1.8261 2.43482V3.34786H0.608699C0.272535 3.34788 0 3.62039 0 3.95658C0 4.29275 0.272535 4.56528 0.608699 4.56528H1.8261V9.43485H0.608699C0.272535 9.43482 0 9.70736 0 10.0435C0 10.3797 0.272535 10.6522 0.608699 10.6522H1.8261V11.5653C1.8261 12.4054 2.50767 13.087 3.34783 13.087C4.188 13.087 4.86957 12.4054 4.86957 11.5653V11.2609H5.47827V11.5653C5.47827 12.4054 6.15984 13.087 7 13.087C7.84016 13.087 8.52173 12.4054 8.52173 11.5653V11.2609H9.13043V11.5653C9.13043 12.4054 9.812 13.087 10.6522 13.087C11.4923 13.087 12.1739 12.4054 12.1739 11.5653V10.6522H13.3913C13.7275 10.6522 14 10.3797 14 10.0435C14 9.70736 13.7275 9.43482 13.3913 9.43482H12.1739V4.56528H12.7826V5.17398C12.7826 5.51014 13.0551 5.78268 13.3913 5.78268C13.7275 5.78268 14 5.51014 14 5.17395V2.73916C14 2.40302 13.7275 2.13048 13.3913 2.13048ZM8.52173 5.78265H9.13043V8.21742H8.52173V5.78265ZM9.13043 3.95658V4.56528H8.52173V3.95658H9.13043ZM4.86957 5.78265H5.47827V8.21742H4.86957V5.78265ZM5.47827 3.95658V4.56528H4.86957V3.95658H5.47827ZM3.65217 11.5653C3.65217 11.7331 3.51564 11.8696 3.34783 11.8696C3.18 11.8696 3.0435 11.7331 3.0435 11.5653V2.43482C3.0435 2.26698 3.18002 2.13048 3.34783 2.13048C3.51567 2.13048 3.65217 2.26701 3.65217 2.43482V3.34786V5.17395V8.82612V10.6522V11.5653ZM4.86957 10.0435V9.43482H5.47827V10.0435H4.86957ZM7.30434 11.5653C7.30434 11.7331 7.16781 11.8696 7 11.8696C6.83219 11.8696 6.69566 11.7331 6.69566 11.5653V10.6522V8.82615V5.17395V3.34786V2.43482C6.69566 2.26698 6.83219 2.13048 7 2.13048C7.16781 2.13048 7.30434 2.26701 7.30434 2.43482V3.34786V5.17395V8.82612V10.6522V11.5653ZM8.52173 10.0435V9.43482H9.13043V10.0435H8.52173ZM10.9565 11.5653C10.9565 11.7331 10.82 11.8696 10.6522 11.8696C10.4844 11.8696 10.3479 11.7331 10.3479 11.5653V10.6522V8.82615V5.17395V3.34786V2.43482C10.3479 2.26698 10.4844 2.13048 10.6522 2.13048C10.82 2.13048 10.9565 2.26701 10.9565 2.43482V11.5653Z" fill="black"/>
</g>
<defs>
<clipPath id="clip0_209_1034">
<rect width="14" height="14" fill="white"/>
</clipPath>
</defs>
</svg>
