<svg width="60" height="55" viewBox="0 0 60 55" fill="none" xmlns="http://www.w3.org/2000/svg">
<path fill-rule="evenodd" clip-rule="evenodd" d="M24.7708 30.5615C25.0816 31.0896 25.375 31.626 25.6507 32.17L34.3053 49.1964C34.4558 49.4923 34.6958 49.7429 34.9972 49.9185C35.2986 50.0941 35.6487 50.1874 36.0063 50.1874H46.0804C46.3956 50.1874 46.7057 50.1149 46.9821 49.9766C47.2585 49.8383 47.4922 49.6387 47.6616 49.3961C47.831 49.1536 47.9307 48.876 47.9514 48.589C47.9721 48.302 47.9132 48.0148 47.7801 47.7541L39.9716 32.453C39.6821 31.8642 39.3391 31.3003 39.0022 30.8014C43.7531 28.7321 46.8584 24.368 46.8584 18.9815C46.8584 14.8748 45.5742 11.7607 43.4202 9.48356C40.2562 6.13863 35.1046 4.5625 28.9017 4.5625L13.9197 4.91839C12.8841 4.91839 12.0446 5.68449 12.0446 6.62935V48.4764C12.0446 49.4214 12.8841 50.1874 13.9197 50.1874H22.8958C23.9314 50.1874 24.7708 49.4214 24.7708 48.4764V30.5615ZM27.4941 27.9827C30.6497 27.8055 33.015 26.9752 34.6572 25.7088C36.6551 24.1682 37.6871 21.9633 37.6871 19.2163C37.6871 16.9777 36.9394 15.2496 35.6858 13.9643C33.9105 12.1441 31.0051 11.1823 27.3524 11.1823C24.5858 11.1823 22.6966 11.3683 22.6966 11.3683C22.2364 11.4131 21.8107 11.6117 21.5013 11.9258C21.1919 12.2398 21.0208 12.6472 21.0208 13.0695V46.7654H15.7946V8.33225L28.9017 7.98442C33.8584 7.98442 38.0531 9.04647 40.5814 11.7194C42.2223 13.454 43.1083 15.8533 43.1083 18.9815C43.1083 23.5898 40.0732 27.2174 35.5832 28.3196C35.2791 28.3942 35.0005 28.5375 34.7731 28.7364C34.5457 28.9352 34.3769 29.1831 34.2822 29.4572C34.1875 29.7313 34.1699 30.0227 34.2311 30.3046C34.2924 30.5864 34.4305 30.8497 34.6327 31.07C34.6327 31.07 35.8197 32.3625 36.5543 33.8623L36.5663 33.8865L43.1389 46.7654H37.2035L29.0521 30.7293C28.4909 29.626 27.968 28.7218 27.4941 27.9827ZM24.7708 24.5833C25.2831 24.5976 25.7612 24.5971 26.1894 24.5971C28.8962 24.5971 30.9171 24.113 32.2368 23.0953C33.4196 22.1832 33.9371 20.8426 33.9371 19.2163C33.9371 17.9569 33.5899 16.9623 32.8847 16.2392C31.7211 15.0464 29.7461 14.6041 27.3524 14.6041C26.3452 14.6041 25.4653 14.6305 24.7708 14.6624V24.5833Z" fill="#606C38"/>
</svg>
