<svg width="40" height="40" viewBox="0 0 40 40" fill="none" xmlns="http://www.w3.org/2000/svg">
<path d="M20.2858 1.71484C10.0425 1.71484 1.71436 10.043 1.71436 20.2863C1.71436 30.5296 10.0425 38.8577 20.2858 38.8577C30.5291 38.8577 38.8572 30.5296 38.8572 20.2863C38.8572 10.043 30.5291 1.71484 20.2858 1.71484Z" fill="#FC471E"/>
<path fill-rule="evenodd" clip-rule="evenodd" d="M25.6177 10.8807C25.6008 10.9872 25.5921 11.0966 25.5921 11.208C25.5921 12.333 26.483 13.2449 27.5819 13.2449C28.6808 13.2449 29.5717 12.333 29.5717 11.208C29.5717 10.083 28.6808 9.17103 27.5819 9.17103C27.0922 9.17103 26.6439 9.35211 26.2971 9.65242L21.1299 8.34766L19.2623 15.9952C16.7778 16.1626 14.5434 16.9328 12.8578 18.0957C12.3792 17.6152 11.7235 17.3189 11.0002 17.3189C9.53498 17.3189 8.34717 18.5349 8.34717 20.0348C8.34717 21.0788 8.92243 21.9851 9.76612 22.4397C9.70516 22.7636 9.6737 23.0942 9.6737 23.4298C9.6737 27.5548 14.4249 30.8987 20.2859 30.8987C26.147 30.8987 30.8982 27.5548 30.8982 23.4298C30.8982 23.0942 30.8667 22.7636 30.8057 22.4397C31.6494 21.9851 32.2247 21.0788 32.2247 20.0348C32.2247 18.5349 31.0369 17.3189 29.5717 17.3189C28.8484 17.3189 28.1927 17.6152 27.7141 18.0957C25.8777 16.8288 23.3899 16.0279 20.6371 15.965L22.0951 9.99445L25.6177 10.8807ZM15.6431 24.1088C16.742 24.1088 17.6329 23.1968 17.6329 22.0718C17.6329 20.9468 16.742 20.0348 15.6431 20.0348C14.5442 20.0348 13.6533 20.9468 13.6533 22.0718C13.6533 23.1968 14.5442 24.1088 15.6431 24.1088ZM24.9288 24.1088C26.0277 24.1088 26.9186 23.1968 26.9186 22.0718C26.9186 20.9468 26.0277 20.0348 24.9288 20.0348C23.8299 20.0348 22.939 20.9468 22.939 22.0718C22.939 23.1968 23.8299 24.1088 24.9288 24.1088ZM16.0109 26.2598C15.7062 26.0518 15.2945 26.136 15.0912 26.448C14.888 26.7602 14.9704 27.1817 15.2751 27.3897C16.7185 28.3747 18.5023 28.8672 20.2859 28.8672C22.0696 28.8672 23.8534 28.3747 25.2966 27.3897C25.6015 27.1817 25.6839 26.7602 25.4806 26.448C25.2774 26.136 24.8657 26.0518 24.5608 26.2598C23.3403 27.0927 21.8132 27.5093 20.2859 27.5093C19.3803 27.5093 18.4746 27.3628 17.6329 27.0699C17.0553 26.8688 16.5077 26.5987 16.0109 26.2598Z" fill="white"/>
</svg>
