<svg width="60" height="60" viewBox="0 0 60 60" fill="none" xmlns="http://www.w3.org/2000/svg">
<path d="M2.78012e-06 29.987C-0.00169343 33.9276 0.772796 37.83 2.27925 41.4714C3.78671 45.1124 5.99622 48.4211 8.78175 51.2086C12.9776 55.4064 18.3243 58.2653 24.1453 59.4236C29.9664 60.5819 36.0003 59.9875 41.4834 57.7156C46.9666 55.4438 51.6527 51.5965 54.9487 46.6607C58.2448 41.7248 60.0027 35.9222 60 29.987C60 28.1855 59.8406 26.387 59.5252 24.6132L53.0737 29.3712C53.0737 29.5764 53.0869 29.7815 53.0869 29.987C53.0921 35.1442 51.3698 40.1547 48.1946 44.2186C45.0192 48.2825 40.5746 51.1663 35.5695 52.4101C30.5638 53.6534 25.286 53.1847 20.5777 51.0789C15.8702 48.9724 12.0035 45.3506 9.594 40.7907C7.18428 36.2306 6.37159 30.9947 7.28567 25.9187C8.19975 20.8427 10.7879 16.2192 14.637 12.7861C18.4844 9.35207 23.3713 7.30583 28.5176 6.97399C33.6647 6.64183 38.7747 8.04282 43.0327 10.9535L48.8666 6.65674C44.4602 3.10084 39.1379 0.863923 33.5142 0.204345C27.8905 -0.455233 22.195 0.489434 17.0854 2.92924C11.9754 5.3686 7.65955 9.20363 4.63639 13.9915C1.61323 18.7793 0.00564528 24.3246 2.78012e-06 29.987Z" fill="#606C38"/>
<path d="M30.043 29.1092L18.5913 21.9257V30.5638L30.043 37.7469L57.4645 17.5359C56.4975 15.4088 55.2887 13.4002 53.8619 11.5498L30.043 29.1092Z" fill="#606C38"/>
</svg>
