<svg width="24" height="24" viewBox="0 0 24 24" fill="none" xmlns="http://www.w3.org/2000/svg">
<g clip-path="url(#clip0_108_1270)">
<path d="M13.2697 0C7.35326 0 2.53986 4.8134 2.53986 10.7299C2.53986 12.4769 2.95981 14.1276 3.70363 15.5867L0.973303 18.317C-0.325085 19.6153 -0.325085 21.7279 0.973303 23.0262C1.62243 23.6754 2.47517 24 3.32788 24C4.18062 24 5.03342 23.6754 5.6825 23.0262L8.41277 20.2959C9.87204 21.0398 11.5227 21.4597 13.2697 21.4597C19.1861 21.4597 23.9995 16.6463 23.9995 10.7299C23.9995 4.81344 19.1861 0 13.2697 0ZM4.11284 21.4565C3.67995 21.8894 2.97585 21.8892 2.54305 21.4565C2.11021 21.0237 2.11021 20.3195 2.54305 19.8867L4.94211 17.4878C5.41006 18.0633 5.93628 18.5895 6.51185 19.0575L4.11284 21.4565ZM13.2697 19.2397C8.57735 19.2397 4.75981 15.4222 4.75981 10.7299C4.75981 6.03754 8.57735 2.22 13.2697 2.22C17.962 2.22 21.7795 6.03749 21.7795 10.7299C21.7795 15.4222 17.962 19.2397 13.2697 19.2397Z" fill="#606C38"/>
</g>
<defs>
<clipPath id="clip0_108_1270">
<rect width="24" height="24" fill="white"/>
</clipPath>
</defs>
</svg>
