<svg width="14" height="14" viewBox="0 0 14 14" fill="none" xmlns="http://www.w3.org/2000/svg">
<g clip-path="url(#clip0_209_1031)">
<path d="M12.7952 8.34091L12.3922 7.64102L10.6524 8.64273L7.90124 7.05417L7.80762 7L7.90124 6.94586L10.6527 5.3573L12.3919 6.35873L12.7952 5.65884L11.4609 4.89087L13.264 3.8497L12.8602 3.15033L11.0568 4.1915L11.0589 2.65158L10.2512 2.65054L10.2486 4.6579L7.4974 6.24646L7.40378 6.30066V3.0152L9.14065 2.00952L8.73627 1.31039L7.40378 2.08206V0H6.5961V2.08206L5.26361 1.31039L4.85922 2.00952L6.5961 3.0152V6.30066L3.75103 4.6579L3.74866 2.65054L2.94095 2.65158L2.94253 4.19122L1.13971 3.15033L0.73584 3.8497L2.5387 4.89059L1.20462 5.65884L1.6077 6.35873L3.34689 5.3573L6.19223 7L3.34744 8.64273L1.60742 7.64102L1.20437 8.34091L2.53921 9.10916L0.73584 10.1503L1.13971 10.8497L2.94253 9.8088L2.94073 11.3482L3.74841 11.3492L3.75076 9.34213L6.5961 7.69937V7.80768V10.9848L4.85922 11.9902L5.26361 12.6894L6.5961 11.9179V14H7.40378V11.9179L8.73627 12.6894L9.14065 11.9902L7.40378 10.9848V7.80768V7.69937L7.4974 7.75354L10.2488 9.34213L10.2512 11.3492L11.0589 11.3482L11.0573 9.8088L12.8602 10.8497L13.264 10.1503L11.4607 9.10916L12.7952 8.34091Z" fill="black"/>
</g>
<defs>
<clipPath id="clip0_209_1031">
<rect width="14" height="14" fill="white"/>
</clipPath>
</defs>
</svg>
