<svg width="40" height="40" viewBox="0 0 40 40" fill="none" xmlns="http://www.w3.org/2000/svg">
<path d="M20.2858 38.8572C30.5425 38.8572 38.8572 30.5425 38.8572 20.2858C38.8572 10.0291 30.5425 1.71436 20.2858 1.71436C10.0291 1.71436 1.71436 10.0291 1.71436 20.2858C1.71436 30.5425 10.0291 38.8572 20.2858 38.8572Z" fill="url(#paint0_linear_191_725)"/>
<path d="M29.5539 12.6035C29.7192 11.535 28.7033 10.6916 27.7532 11.1088L8.83111 19.4166C8.14982 19.7157 8.19965 20.7477 8.90626 20.9727L12.8084 22.2154C13.5533 22.4526 14.3597 22.3299 15.0101 21.8806L23.8079 15.8024C24.0732 15.6191 24.3624 15.9964 24.1357 16.23L17.8028 22.7592C17.1885 23.3926 17.3104 24.4659 18.0494 24.9292L25.1397 29.3755C25.935 29.8741 26.958 29.3732 27.1067 28.4122L29.5539 12.6035Z" fill="white"/>
<defs>
<linearGradient id="paint0_linear_191_725" x1="20.2858" y1="1.71436" x2="20.2858" y2="38.8572" gradientUnits="userSpaceOnUse">
<stop stop-color="#37BBFE"/>
<stop offset="1" stop-color="#007DBB"/>
</linearGradient>
</defs>
</svg>
