<svg width="60" height="60" viewBox="0 0 60 60" fill="none" xmlns="http://www.w3.org/2000/svg">
<path d="M29.7263 21.2423L25.9706 38.8054H21.4256L25.1869 21.2423H29.7263ZM48.8456 32.5823L51.2363 25.986L52.6144 32.5823H48.8456ZM53.9138 38.8054H58.1175L54.45 21.2423H50.5706C50.565 21.2423 50.5575 21.2423 50.5519 21.2423C49.6913 21.2423 48.9525 21.7691 48.6413 22.5173L48.6356 22.5304L41.82 38.8054H46.59L47.5388 36.1804H53.3681L53.9138 38.8054ZM42.0544 33.0716C42.0731 28.4348 35.6438 28.1798 35.6888 26.1079C35.7038 25.4779 36.3019 24.8066 37.6144 24.636C37.8581 24.6116 38.1394 24.5966 38.4244 24.5966C39.7575 24.5966 41.0213 24.9004 42.1463 25.4441L42.0956 25.4216L42.8925 21.696C41.6306 21.2066 40.17 20.9216 38.6438 20.916H38.6419C34.1494 20.916 30.99 23.3066 30.9619 26.7248C30.9338 29.2523 33.2175 30.6604 34.9406 31.5041C36.7125 32.3648 37.3069 32.9179 37.2975 33.6848C37.2863 34.866 35.8875 35.3835 34.5788 35.4041C34.5188 35.406 34.4456 35.406 34.3744 35.406C32.7413 35.406 31.2038 34.9954 29.8613 34.2698L29.9119 34.2941L29.0888 38.1416C30.5625 38.7323 32.2706 39.0735 34.0594 39.0735C34.0875 39.0735 34.1156 39.0735 34.1438 39.0735H34.14C38.9138 39.0735 42.0356 36.7166 42.0525 33.066L42.0544 33.0716ZM23.2331 21.2423L15.8719 38.8054H11.0681L7.44563 24.786C7.37626 24.1035 6.95813 23.5335 6.37688 23.2485L6.36563 23.2429C5.07563 22.6091 3.57563 22.0935 2.00626 21.7691L1.88251 21.7485L1.99126 21.2404H9.72376C10.7775 21.2404 11.6531 22.011 11.8163 23.0179L11.8181 23.0291L13.7325 33.1935L18.4613 21.2385L23.2331 21.2423Z" fill="#606C38"/>
</svg>
