<svg width="40" height="40" viewBox="0 0 40 40" fill="none" xmlns="http://www.w3.org/2000/svg">
<path d="M20.2858 38.8572C30.5425 38.8572 38.8572 30.5425 38.8572 20.2858C38.8572 10.0291 30.5425 1.71436 20.2858 1.71436C10.0291 1.71436 1.71436 10.0291 1.71436 20.2858C1.71436 30.5425 10.0291 38.8572 20.2858 38.8572Z" fill="#2787F5"/>
<path d="M22.964 11.5625H17.608C12.72 11.5625 11.5625 12.72 11.5625 17.608V22.964C11.5625 27.852 12.72 29.0095 17.608 29.0095H22.964C27.852 29.0095 29.0095 27.852 29.0095 22.964V17.608C29.0095 12.72 27.8397 11.5625 22.964 11.5625ZM25.6481 24.0104H24.3786C23.8984 24.0104 23.7507 23.6288 22.8889 22.7547C22.1377 22.0292 21.8054 21.9299 21.6194 21.9299C21.3607 21.9299 21.2867 22.0024 21.2867 22.3608V23.5059C21.2867 23.8138 21.1881 23.9985 20.3756 23.9985C19.0335 23.9985 17.5438 23.186 16.497 21.6712C14.921 19.455 14.49 17.7926 14.49 17.448C14.49 17.2634 14.5626 17.0911 14.921 17.0911H16.1905C16.5108 17.0911 16.6337 17.2388 16.7567 17.5837C17.3846 19.3937 18.4314 20.9821 18.8605 20.9821C19.0205 20.9821 19.0944 20.9095 19.0944 20.5018V18.6302C19.0451 17.7683 18.5895 17.6943 18.5895 17.3867C18.5895 17.2391 18.7125 17.0911 18.9098 17.0911H20.9048C21.1758 17.0911 21.2741 17.2388 21.2741 17.559V20.0829C21.2741 20.3538 21.397 20.4521 21.471 20.4521C21.631 20.4521 21.7666 20.3535 22.0619 20.0582C22.973 19.0364 23.6256 17.4604 23.6256 17.4604C23.7119 17.2758 23.8595 17.1035 24.1798 17.1035H25.4494C25.8309 17.1035 25.9173 17.3004 25.8309 17.5714C25.671 18.3102 24.1196 20.5018 24.1196 20.5018C23.9843 20.7234 23.935 20.8221 24.1196 21.068C24.2549 21.2527 24.7 21.6342 24.9938 21.9792C25.5357 22.5958 25.9543 23.112 26.0649 23.4689C26.19 23.8258 26.0051 24.0104 25.6481 24.0104Z" fill="white"/>
</svg>
